<svg xmlns="http://www.w3.org/2000/svg" xmlns:xlink="http://www.w3.org/1999/xlink" style="position:absolute; width: 0; height: 0"><defs><linearGradient id="google-play-fr-a" x1="879.429" x2="856.352" y1="495.527" y2="509.97" gradientUnits="userSpaceOnUse" gradientTransform="matrix(0.7071 0.7071 0.7071 -0.7071 -947.4174 -225.4017)"> <stop offset="0" stop-color="#d6ffa1"></stop><stop offset=".326" stop-color="#93e2a7"></stop><stop offset="1" stop-color="#00a3b5"></stop></linearGradient><linearGradient id="google-play-fr-b" x1="866.01" x2="895.934" y1="507.865" y2="500.043" gradientUnits="userSpaceOnUse" gradientTransform="matrix(0.7071 0.7071 0.7071 -0.7071 -947.4174 -225.4017)"> <stop offset="0" stop-color="#ff177b"></stop><stop offset=".672" stop-color="#ffa976"></stop><stop offset="1" stop-color="#ffec73"></stop></linearGradient><linearGradient id="google-play-fr-c" x1="882.713" x2="850.268" y1="484.574" y2="503.663" gradientUnits="userSpaceOnUse" gradientTransform="matrix(0.7071 0.7071 0.7071 -0.7071 -947.4174 -225.4017)"> <stop offset="0" stop-color="#63ffd4"></stop><stop offset=".485" stop-color="#32a0ba"></stop><stop offset=".835" stop-color="#1262a9"></stop><stop offset="1" stop-color="#064aa2"></stop></linearGradient><linearGradient id="google-play-fr-d" x1="894.492" x2="874.515" y1="499.728" y2="473.41" gradientUnits="userSpaceOnUse" gradientTransform="matrix(0.7071 0.7071 0.7071 -0.7071 -947.4174 -225.4017)"> <stop offset="0" stop-color="#ff4521"></stop><stop offset=".341" stop-color="#d43e65"></stop><stop offset=".793" stop-color="#9f36b9"></stop><stop offset="1" stop-color="#8a33db"></stop></linearGradient><linearGradient id="google-play-a" x1="727.492" x2="709.404" y1="886.949" y2="898.269" gradientUnits="userSpaceOnUse" gradientTransform="matrix(0.7071 0.7071 0.7071 -0.7071 -899.868 516.5412)"> <stop offset="0" stop-color="#d7e69d"></stop><stop offset=".446" stop-color="#94c4aa"></stop><stop offset="1" stop-color="#01a4b6"></stop></linearGradient><linearGradient id="google-play-b" x1="716.977" x2="740.428" y1="896.621" y2="890.491" gradientUnits="userSpaceOnUse" gradientTransform="matrix(0.7071 0.7071 0.7071 -0.7071 -899.868 516.5412)"> <stop offset="0" stop-color="#ED277B"></stop><stop offset=".019" stop-color="#EE2F7C"></stop><stop offset=".704" stop-color="#F7BD81"></stop><stop offset="1" stop-color="#FEEB74"></stop></linearGradient><linearGradient id="google-play-c" x1="730.067" x2="704.636" y1="878.363" y2="893.325" gradientUnits="userSpaceOnUse" gradientTransform="matrix(0.7071 0.7071 0.7071 -0.7071 -899.868 516.5412)"> <stop offset="0" stop-color="#89cfbd"></stop><stop offset=".091" stop-color="#7dbebb"></stop><stop offset=".54" stop-color="#457cac"></stop><stop offset=".852" stop-color="#1c5aa2"></stop><stop offset="1" stop-color="#084d9f"></stop></linearGradient><linearGradient id="google-play-d" x1="739.302" x2="723.642" y1="890.243" y2="869.612" gradientUnits="userSpaceOnUse" gradientTransform="matrix(0.7071 0.7071 0.7071 -0.7071 -899.868 516.5412)"> <stop offset="0" stop-color="#f04a2b"></stop><stop offset=".47" stop-color="#b54f6b"></stop><stop offset=".835" stop-color="#8b5191"></stop><stop offset="1" stop-color="#7851a1"></stop></linearGradient><path id="icon-category-10-a" d="M30.2 13l-2.5-2.5c2.2 2.2 3.6 5.2 3.6 8.6 0 6.7-5.4 12.2-12.2 12.2-3.3 0-6.3-1.3-8.5-3.4l2.5 2.5c2.2 2.2 5.2 3.6 8.6 3.6 6.7 0 12.2-5.4 12.2-12.2 0-3.5-1.5-6.6-3.7-8.8z"> </path><path id="icon-category-112-a" d="M6.1 9.9h26.4v10.7H6.1z"> </path><path id="icon-category-112-c" d="M33 32.5H7c-1.6 0-2.7-1.5-2.3-3l2.1-7.1c.3-1 1.2-1.7 2.3-1.7H31c1 0 2 .7 2.3 1.7l2.1 7.1c.3 1.5-.8 3-2.4 3z"> </path><path id="icon-category-45-a" d="M33 32.8H7c-.3 0-.6-.3-.6-.6V13.7c0-.3.3-.6.6-.6h26c.3 0 .6.3.6.6v18.5c0 .3-.2.6-.6.6z"> </path><filter id="icon-category-72-a" width="28.4" height="27.1" x="5" y="5.6" filterUnits="userSpaceOnUse"> <feColorMatrix values="1 0 0 0 0 0 1 0 0 0 0 0 1 0 0 0 0 0 1 0"></feColorMatrix></filter><path id="icon-facebook-SVGID_1_" d="M0 0h6.9v14.1H0z"> </path><linearGradient id="youtube-a" x1="512.499" x2="512.499" y1="1.296" y2="719.719" gradientUnits="userSpaceOnUse"> <stop offset="0" stop-color="#e52d27"></stop><stop offset="1" stop-color="#bf171d"></stop></linearGradient></defs><symbol viewBox="0 0 300 120.324" id="ebay-logo"><path fill="#e53238" d="M38.866 26.308C17.721 26.308.1 35.28.1 62.345c0 21.442 11.849 34.944 39.312 34.944 32.327 0 34.399-21.294 34.399-21.294H58.147s-3.358 11.466-19.69 11.466c-13.302 0-22.87-8.986-22.87-21.58H75.45v-7.904c0-12.46-7.91-31.669-36.583-31.669zM38.32 36.41c12.663 0 21.295 7.758 21.295 19.384h-43.68c0-12.343 11.266-19.384 22.385-19.384z"></path><path fill="#0064d2" d="M75.438.1v83.597c0 4.745-.339 11.408-.339 11.408h14.94s.536-4.785.536-9.159c0 0 7.381 11.548 27.451 11.548 21.135 0 35.49-14.673 35.49-35.695 0-19.557-13.186-35.286-35.456-35.286-20.854 0-27.334 11.262-27.334 11.262V.1zm38.766 36.753c14.352 0 23.478 10.652 23.478 24.946 0 15.328-10.54 25.355-23.375 25.355-15.318 0-23.581-11.96-23.581-25.219 0-12.354 7.414-25.082 23.478-25.082z"></path><path fill="#f5af02" d="M190.645 26.308c-31.812 0-33.852 17.42-33.852 20.203h15.834s.83-10.17 16.926-10.17c10.46 0 18.564 4.788 18.564 13.992v3.276h-18.564c-24.645 0-37.674 7.21-37.674 21.84 0 14.398 12.038 22.233 28.307 22.233 22.171 0 29.313-12.251 29.313-12.251 0 4.872.376 9.674.376 9.674h14.076s-.546-5.952-.546-9.76V52.431c0-21.58-17.407-26.123-32.76-26.123zm17.472 37.129v4.368c0 5.697-3.515 19.86-24.212 19.86-11.333 0-16.192-5.655-16.192-12.216 0-11.935 16.364-12.012 40.404-12.012z"></path><path fill="#86b817" d="M214.879 29.041h17.813l25.565 51.218 25.507-51.218H299.9l-46.46 91.183h-16.925l13.406-25.418z"></path></symbol><symbol viewBox="0 0 266.893 266.895" id="facebook"><path fill="#3C5A99" d="M248.082 262.307c7.854 0 14.223-6.369 14.223-14.225V18.812c0-7.857-6.368-14.224-14.223-14.224H18.812c-7.857 0-14.224 6.367-14.224 14.224v229.27c0 7.855 6.366 14.225 14.224 14.225h229.27z"></path><path fill="#FFF" d="M182.409 262.307v-99.803h33.499l5.016-38.895h-38.515V98.777c0-11.261 3.127-18.935 19.275-18.935l20.596-.009V45.045c-3.562-.474-15.788-1.533-30.012-1.533-29.695 0-50.025 18.126-50.025 51.413v28.684h-33.585v38.895h33.585v99.803h40.166z"></path></symbol><symbol viewBox="0 0 216.457 75.108" id="google-play-fr"><path d="M215.707 63.768c0 6.53-4.797 10.591-11.322 10.591H12.571C6.043 74.359.75 69.061.75 62.531V12.574C.75 6.045 6.043.75 12.571.75h191.813c6.525 0 11.322 5.295 11.322 11.824v51.194z"></path><path fill="#FFF" d="M204.385 75.108H12.571C5.64 75.108 0 69.466 0 62.53V12.574C0 5.641 5.64 0 12.571 0h191.813c6.77 0 12.072 5.523 12.072 12.574v51.194c.001 6.783-4.851 11.34-12.071 11.34zM12.571 1.5C6.467 1.5 1.5 6.468 1.5 12.574V62.53c0 6.108 4.967 11.078 11.071 11.078h191.813c6.324 0 10.572-3.955 10.572-9.841V12.574c0-6.209-4.645-11.074-10.572-11.074H12.571z"></path><g fill="#FFF"><path d="M147.652 53.585l-1.615 1.521c-.371.205-.742.443-1.113.612-1.121.509-2.26.638-3.273.638-1.078 0-2.768-.07-4.49-1.316-2.396-1.688-3.443-4.588-3.443-7.114 0-5.231 4.26-7.798 7.732-7.798 1.215 0 2.463.304 3.477.945 1.686 1.113 2.121 2.562 2.363 3.34l-7.934 3.205-2.598.201c.84 4.289 3.742 6.784 6.949 6.784 1.602 0 2.791-.521 3.883-1.062-.002.002.217-.112.062.044zm-4.787-8.533c.645-.234.979-.438.979-.906 0-1.348-1.523-2.904-3.344-2.904-1.35 0-3.879 1.051-3.879 4.695 0 .569.066 1.176.102 1.781l6.142-2.666z"></path><path d="M131.064 53.323c0 1.312.234 1.516 1.344 1.617.578.068 1.152.1 1.725.166l-1.248.743h-5.947c.779-1.012.914-1.112.914-1.786v-.753l-.014-20.063h-2.625l2.527-1.218h4.824c-1.045.605-1.357.975-1.492 2.155l-.008 19.139z"></path><path d="M121.842 41.784c.773.637 2.393 1.988 2.393 4.553 0 2.499-1.41 3.677-2.83 4.792-.438.438-.945.915-.945 1.651 0 .746.51 1.15.877 1.453l1.219.94c1.482 1.251 2.832 2.397 2.832 4.728 0 3.176-3.072 6.375-8.877 6.375-4.889 0-7.253-2.328-7.253-4.824 0-1.217.604-2.938 2.601-4.115 2.092-1.279 4.928-1.45 6.444-1.551-.473-.611-1.014-1.252-1.014-2.299 0-.571.172-.912.338-1.314-.369.035-.742.07-1.08.07-3.579 0-5.602-2.67-5.602-5.301 0-1.553.707-3.273 2.161-4.521 1.925-1.584 4.218-1.857 6.041-1.857h6.955l-2.162 1.221h-2.098v-.001zm-2.391 14.981c-.277-.036-.443-.036-.777-.036-.305 0-2.129.066-3.541.54-.747.273-2.906 1.08-2.906 3.479 0 2.392 2.331 4.115 5.939 4.115 3.238 0 4.959-1.553 4.959-3.644-.002-1.722-1.115-2.629-3.674-4.454zm.969-6.412c.781-.777.848-1.854.848-2.466 0-2.427-1.445-6.207-4.252-6.207-.875 0-1.823.438-2.36 1.118-.57.703-.742 1.615-.742 2.492 0 2.26 1.317 6.008 4.217 6.008.846 0 1.756-.411 2.289-.945zm-19.501 5.933c-5.364 0-8.234-4.178-8.234-7.959 0-4.418 3.608-8.199 8.74-8.199 4.961 0 8.068 3.884 8.068 7.962.001 3.981-3.071 8.196-8.574 8.196zm4.22-2.729c.816-1.08 1.014-2.428 1.014-3.741 0-2.973-1.416-8.641-5.601-8.641a4.707 4.707 0 0 0-3.042 1.146c-1.318 1.181-1.553 2.664-1.553 4.119 0 3.334 1.647 8.834 5.737 8.834 1.321 0 2.668-.639 3.445-1.717zM82.96 56.286c-5.365 0-8.23-4.178-8.23-7.959 0-4.418 3.609-8.199 8.739-8.199 4.958 0 8.062 3.884 8.062 7.962 0 3.981-3.067 8.196-8.571 8.196zm4.221-2.729c.81-1.08 1.012-2.428 1.012-3.741 0-2.973-1.42-8.641-5.601-8.641a4.688 4.688 0 0 0-3.036 1.146c-1.32 1.181-1.554 2.664-1.554 4.119 0 3.334 1.654 8.834 5.737 8.834 1.318 0 2.663-.639 3.442-1.717zm-14.596 1.559l-4.524 1.035c-1.833.289-3.479.543-5.222.543-8.727 0-12.051-6.424-12.051-11.449 0-6.141 4.711-11.832 12.778-11.832 1.707 0 3.35.251 4.846.658 2.371.667 3.479 1.487 4.173 1.969l-2.628 2.496-1.108.248.79-1.26c-1.07-1.045-3.037-2.974-6.77-2.974-4.991 0-8.757 3.794-8.757 9.333 0 5.949 4.3 11.545 11.194 11.545 2.026 0 3.069-.406 4.016-.787v-5.1l-4.776.257 2.532-1.36h6.703l-.819.789c-.222.188-.251.252-.313.504a22.62 22.62 0 0 0-.063 1.526l-.001 3.859zM157.379 53.729v8.597h-1.707V40.452h1.707v2.49c1.111-1.608 3.143-2.886 5.504-2.886 4.232 0 7.084 3.211 7.084 8.294 0 5.049-2.852 8.327-7.084 8.327-2.229.002-4.223-1.147-5.504-2.948zm10.754-5.377c0-3.831-1.998-6.753-5.539-6.753-2.199 0-4.301 1.729-5.215 3.235v7.001c.914 1.51 3.016 3.301 5.215 3.301 3.541 0 5.539-2.948 5.539-6.784zm4.164 7.932v-21.87h1.707v21.871h-1.707zm20.861 4.625c.363.162.986.264 1.383.264 1.045 0 1.771-.428 2.424-1.936l1.246-2.82-6.725-15.965h1.902l5.77 13.834 5.713-13.834h1.93L198.6 59.766c-.85 1.99-2.188 2.947-4.027 2.947-.553 0-1.279-.099-1.707-.229l.292-1.575zm-4.986-4.672a27.957 27.957 0 0 1-.264-1.437 9.457 9.457 0 0 1-.082-1.233c-.586.858-1.414 1.573-2.475 2.137-1.059.566-2.064.846-3.447.846-1.662 0-2.953-.409-3.875-1.239-.918-.829-1.381-1.952-1.381-3.372s.67-2.572 2.004-3.453c1.334-.885 3.059-1.324 5.191-1.324h3.982v-1.967c0-1.134-.389-2.023-1.158-2.67-.773-.646-1.859-.975-3.268-.975-1.287 0-2.332.299-3.127.881-.787.594-1.186 1.33-1.186 2.217h-1.746l-.037-.084c-.062-1.195.484-2.246 1.648-3.15 1.156-.905 2.674-1.36 4.541-1.36 1.859 0 3.367.448 4.502 1.342 1.135.886 1.703 2.164 1.703 3.837v7.811c0 .561.025 1.103.098 1.631a10.4 10.4 0 0 0 .34 1.566h-1.965v-.004zm-6.057-1.244c1.449 0 2.49-.323 3.557-.965 1.059-.638 1.777-1.469 2.156-2.475v-3.04h-4c-1.529 0-2.793.338-3.789 1.021-.996.681-1.502 1.504-1.502 2.461 0 .902.318 1.625.957 2.172.637.553 1.508.826 2.621.826z"></path></g><path fill="none" d="M28.498 47.46l5.476-5.477h-.002l-5.474 5.477-17.477-17.475h-.001l17.478 17.478-17.505 17.506 17.505-17.506 5.5 5.5h.003z"></path><path fill="url(#google-play-fr-a)" d="M33.972 41.983L12.636 30.252c-.604-.331-1.163-.408-1.615-.268L28.499 47.46l5.473-5.477z"></path><path fill="url(#google-play-fr-b)" d="M34.001 52.963l7.283-4.005c1.477-.815 1.477-2.143 0-2.954l-7.311-4.021-5.476 5.477 5.504 5.503z"></path><path fill="url(#google-play-fr-c)" d="M11.02 29.985c-.649.203-1.069.86-1.069 1.854l.004 31.283c0 .982.407 1.631 1.038 1.847l17.506-17.506L11.02 29.985z"></path><path fill="url(#google-play-fr-d)" d="M10.993 64.969c.454.153 1.024.082 1.643-.258l21.363-11.748-5.5-5.5-17.506 17.506z"></path><path fill="#FFF" d="M50.796 21.803V11.126h3.97c3.345 0 5.586 2.209 5.586 5.331 0 3.152-2.241 5.346-5.57 5.346h-3.986zm7.634-5.346c0-2.049-1.28-3.682-3.649-3.682h-2.113v7.379h2.098c2.32.001 3.664-1.665 3.664-3.697zm4.126 5.346V11.126h1.872v10.677h-1.872zm3.855-1.505l1.057-1.456a4.587 4.587 0 0 0 3.377 1.488c1.537 0 2.129-.752 2.129-1.473 0-2.241-6.21-.849-6.21-4.77 0-1.777 1.536-3.138 3.889-3.138 1.649 0 3.01.544 3.986 1.505l-1.057 1.394c-.849-.849-1.984-1.232-3.105-1.232-1.088 0-1.793.544-1.793 1.328 0 2.001 6.211.769 6.211 4.738 0 1.776-1.265 3.313-4.13 3.313-1.969 0-3.394-.705-4.354-1.697zm10.593 1.505V11.126h4.706c2.24 0 3.473 1.521 3.473 3.346 0 1.809-1.248 3.329-3.473 3.329h-2.834v4.002h-1.872zm6.258-7.331c0-1.024-.752-1.696-1.809-1.696h-2.577v3.377h2.577c1.057 0 1.809-.672 1.809-1.681zm3.42 2.001c0-3.186 2.257-5.522 5.459-5.522 3.185 0 5.458 2.337 5.458 5.522s-2.273 5.522-5.458 5.522c-3.202 0-5.459-2.337-5.459-5.522zm8.997 0c0-2.209-1.393-3.857-3.537-3.857-2.161 0-3.538 1.648-3.538 3.857 0 2.192 1.377 3.857 3.538 3.857 2.144 0 3.537-1.665 3.537-3.857zm11.551 5.33l-5.57-7.635v7.635h-1.872V11.126h1.921l5.458 7.396v-7.396h1.874v10.677h-1.811zm4.478 0V11.126h1.871v10.677h-1.871zm4.544 0V11.126h5.25c1.969 0 3.041 1.217 3.041 2.722 0 1.328-.865 2.241-1.857 2.449 1.152.176 2.064 1.312 2.064 2.608 0 1.665-1.088 2.897-3.105 2.897l-5.393.001zm6.369-7.651c0-.784-.543-1.376-1.488-1.376h-3.01v2.753h3.01c.945 0 1.488-.561 1.488-1.377zm.209 4.513c0-.8-.562-1.488-1.617-1.488h-3.09v2.978h3.09c1.008 0 1.617-.561 1.617-1.49zm4.078 3.138V11.126h1.871v9.028h4.707v1.648l-6.578.001zm8.623 0V11.126h7.314v1.649h-5.443v2.753h5.332v1.648h-5.332v2.978h5.443v1.648l-7.314.001zm13.471-1.505l1.057-1.456a4.589 4.589 0 0 0 3.377 1.488c1.537 0 2.129-.752 2.129-1.473 0-2.241-6.209-.849-6.209-4.77 0-1.777 1.535-3.138 3.889-3.138 1.648 0 3.01.544 3.986 1.505l-1.057 1.393c-.85-.849-1.986-1.232-3.105-1.232-1.088 0-1.793.544-1.793 1.328 0 2.001 6.211.769 6.211 4.738 0 1.776-1.266 3.313-4.131 3.313-1.969.001-3.393-.704-4.354-1.696zm10.592-2.721v-6.451h1.904v6.403c0 1.696.945 2.801 2.723 2.801 1.775 0 2.721-1.104 2.721-2.801v-6.403h1.904v6.451c0 2.641-1.521 4.418-4.625 4.418-3.09 0-4.627-1.777-4.627-4.418zm18.019 4.226l-2.354-3.985h-1.873v3.985h-1.873V11.126h4.689c2.111 0 3.506 1.361 3.506 3.346 0 1.889-1.248 2.93-2.545 3.138l2.625 4.193h-2.175zm.176-7.347c0-1.024-.771-1.681-1.826-1.681h-2.576v3.394h2.576c1.057 0 1.826-.673 1.826-1.713z"></path></symbol><symbol viewBox="222.251 367.689 169.672 58.874" id="google-play"><path fill="#010101" stroke="#FFF" stroke-width="1.176" stroke-miterlimit="10" d="M391.335 417.674c0 5.119-3.761 8.301-8.875 8.301H232.105c-5.116 0-9.266-4.151-9.266-9.271v-39.159c0-5.118 4.149-9.268 9.266-9.268H382.46c5.114 0 8.875 4.15 8.875 9.268v40.129z"></path><path fill="#010101" stroke="#FFF" stroke-width="1.176" stroke-miterlimit="10" d="M391.335 417.674c0 5.119-3.761 8.301-8.875 8.301H232.105c-5.116 0-9.266-4.151-9.266-9.271v-39.159c0-5.118 4.149-9.268 9.266-9.268H382.46c5.114 0 8.875 4.15 8.875 9.268v40.129z"></path><g fill="#FFF"><path d="M337.988 409.692l-1.267 1.193c-.291.159-.582.348-.873.479-.878.399-1.771.499-2.564.499-.847 0-2.17-.055-3.521-1.032-1.879-1.322-2.698-3.594-2.698-5.576 0-4.102 3.34-6.112 6.062-6.112.952 0 1.929.239 2.724.741 1.322.873 1.664 2.01 1.854 2.618l-6.219 2.513-2.038.158c.66 3.361 2.936 5.316 5.449 5.316 1.256 0 2.188-.408 3.043-.831-.001.001.171-.088.048.034zm-3.752-6.688c.505-.184.768-.343.768-.711 0-1.057-1.195-2.275-2.621-2.275-1.057 0-3.041.822-3.041 3.681 0 .444.053.92.08 1.396l4.814-2.091z"></path><path d="M324.986 409.486c0 1.028.184 1.188 1.053 1.27.453.053.905.076 1.354.131l-.979.581h-4.66c.611-.792.715-.871.715-1.398v-.593l-.01-15.726H320.4l1.98-.955h3.782c-.819.475-1.065.763-1.171 1.688l-.005 15.002z"></path><path d="M317.758 400.441c.606.5 1.874 1.559 1.874 3.568 0 1.958-1.104 2.882-2.218 3.757-.342.344-.741.718-.741 1.296 0 .584.399.9.688 1.139l.957.736c1.159.98 2.22 1.881 2.22 3.706 0 2.488-2.407 4.996-6.958 4.996-3.834 0-5.687-1.823-5.687-3.78 0-.954.474-2.303 2.038-3.228 1.641-1.002 3.862-1.137 5.053-1.214-.372-.48-.796-.983-.796-1.802 0-.449.136-.717.265-1.032-.289.028-.58.058-.846.058-2.806 0-4.394-2.096-4.394-4.155 0-1.218.557-2.566 1.695-3.545 1.508-1.242 3.307-1.457 4.733-1.457h5.451l-1.692.957h-1.642zm-1.875 11.744c-.217-.027-.348-.027-.608-.027-.239 0-1.668.053-2.775.424-.584.215-2.277.846-2.277 2.725 0 1.875 1.827 3.229 4.653 3.229 2.54 0 3.889-1.218 3.889-2.856-.002-1.352-.874-2.065-2.882-3.495zm.76-5.027c.613-.611.665-1.453.665-1.933 0-1.901-1.134-4.865-3.333-4.865-.686 0-1.429.344-1.852.876-.445.552-.579 1.267-.579 1.953 0 1.771 1.032 4.71 3.304 4.71.664 0 1.377-.323 1.795-.741zm-15.285 4.653c-4.205 0-6.454-3.274-6.454-6.238 0-3.464 2.828-6.429 6.85-6.429 3.888 0 6.324 3.044 6.324 6.241 0 3.121-2.407 6.426-6.72 6.426zm3.308-2.141c.64-.846.794-1.902.794-2.933 0-2.329-1.11-6.772-4.391-6.772-.872 0-1.75.341-2.383.898-1.035.925-1.218 2.087-1.218 3.229 0 2.613 1.292 6.924 4.499 6.924 1.034 0 2.089-.5 2.699-1.346zm-17.386 2.141c-4.206 0-6.451-3.274-6.451-6.238 0-3.464 2.83-6.429 6.85-6.429 3.887 0 6.319 3.044 6.319 6.241 0 3.121-2.403 6.426-6.718 6.426zm3.309-2.141c.634-.846.793-1.902.793-2.933 0-2.329-1.113-6.772-4.391-6.772-.875 0-1.745.341-2.379.898-1.036.925-1.218 2.087-1.218 3.229 0 2.613 1.296 6.924 4.497 6.924 1.034 0 2.088-.5 2.698-1.346zm-11.441 1.223l-3.547.812c-1.436.228-2.726.427-4.092.427-6.84 0-9.447-5.035-9.447-8.976 0-4.812 3.693-9.274 10.017-9.274 1.337 0 2.625.196 3.798.515 1.858.523 2.728 1.167 3.271 1.544l-2.061 1.958-.869.192.619-.986c-.838-.819-2.38-2.332-5.306-2.332-3.913 0-6.864 2.973-6.864 7.317 0 4.662 3.371 9.049 8.774 9.049 1.589 0 2.406-.319 3.147-.616v-3.998l-3.744.2 1.985-1.065h5.254l-.644.619c-.173.147-.195.196-.244.396-.026.227-.05.943-.05 1.196v3.022h.003zM345.613 409.805v6.738h-1.338v-17.145h1.338v1.951c.871-1.261 2.464-2.261 4.313-2.261 3.317 0 5.554 2.517 5.554 6.5 0 3.958-2.235 6.527-5.554 6.527-1.745.002-3.309-.898-4.313-2.31zm8.43-4.215c0-3.003-1.565-5.293-4.342-5.293-1.724 0-3.371 1.354-4.088 2.535v5.488c.717 1.183 2.364 2.588 4.088 2.588 2.777 0 4.342-2.31 4.342-5.318zm3.264 6.219v-17.144h1.34v17.144h-1.34zm16.352 3.625c.285.128.773.207 1.083.207.817 0 1.389-.336 1.899-1.518l.978-2.211-5.271-12.514h1.492l4.522 10.845 4.478-10.845h1.514l-6.43 15.139c-.666 1.561-1.716 2.311-3.158 2.311a5.324 5.324 0 0 1-1.337-.18l.23-1.234zm-3.909-3.663c-.09-.432-.156-.81-.205-1.127a7.507 7.507 0 0 1-.063-.968c-.459.674-1.109 1.234-1.938 1.676-.831.443-1.62.662-2.704.662-1.303 0-2.313-.319-3.037-.971-.72-.65-1.082-1.531-1.082-2.645s.525-2.017 1.57-2.705c1.046-.695 2.397-1.038 4.07-1.038h3.121v-1.544c0-.89-.304-1.586-.908-2.094-.606-.507-1.458-.762-2.562-.762-1.01 0-1.828.233-2.45.689-.617.466-.929 1.042-.929 1.737h-1.37l-.026-.066c-.05-.938.378-1.76 1.291-2.469.905-.711 2.097-1.066 3.561-1.066 1.456 0 2.638.352 3.528 1.051.889.693 1.334 1.697 1.334 3.008v6.122c0 .439.021.864.076 1.278.058.415.146.828.268 1.229l-1.545.003zm-4.748-.974c1.137 0 1.953-.254 2.789-.757.828-.499 1.394-1.149 1.689-1.938v-2.384h-3.136c-1.198 0-2.188.266-2.97.8-.781.533-1.179 1.179-1.179 1.93 0 .708.252 1.272.75 1.701.502.433 1.186.648 2.057.648z"></path></g><path fill="#FFF" d="M262.118 380.601c0-2.634 1.958-4.329 4.392-4.329 1.631 0 2.698.778 3.362 1.731l-1.191.69a2.706 2.706 0 0 0-2.171-1.116c-1.656 0-2.886 1.255-2.886 3.023 0 1.745 1.23 3.024 2.886 3.024.853 0 1.605-.389 1.982-.751v-1.294h-2.509v-1.292h3.964v3.125a4.521 4.521 0 0 1-3.438 1.531c-2.433 0-4.391-1.719-4.391-4.342zm9.646 4.179v-8.37h5.734v1.292h-4.266v2.158h4.178v1.292h-4.178v2.334h4.266v1.293l-5.734.001zm9.796 0v-7.077h-2.534v-1.292h6.536v1.292h-2.534v7.077h-1.468zm9.104 0v-8.37h1.468v8.37h-1.468zm5.555 0v-7.077h-2.534v-1.292h6.536v1.292h-2.534v7.077h-1.468zm8.741-4.179c0-2.497 1.769-4.329 4.279-4.329 2.496 0 4.277 1.832 4.277 4.329s-1.781 4.329-4.277 4.329c-2.51 0-4.279-1.832-4.279-4.329zm7.052 0c0-1.73-1.092-3.023-2.771-3.023-1.694 0-2.773 1.292-2.773 3.023 0 1.72 1.079 3.024 2.773 3.024 1.679 0 2.771-1.304 2.771-3.024zm9.053 4.179l-4.366-5.985v5.985h-1.467v-8.37h1.506l4.276 5.796v-5.796h1.47v8.37h-1.419z"></path><path fill="none" d="M244.59 404.892l4.293-4.292h-.001l-4.292 4.292-13.699-13.7h-.001l13.7 13.702-13.722 13.721 13.722-13.721 4.312 4.311h.002z"></path><path fill="url(#google-play-a)" d="M248.882 400.6l-16.726-9.197c-.473-.259-.912-.319-1.265-.21l13.7 13.699 4.291-4.292z"></path><path fill="url(#google-play-b)" d="M248.904 409.205l5.709-3.141c1.158-.64 1.158-1.679 0-2.314l-5.73-3.15-4.292 4.292 4.313 4.313z"></path><path fill="url(#google-play-c)" d="M230.89 391.192c-.508.159-.838.675-.838 1.454l.003 24.522c0 .77.32 1.277.813 1.446l13.723-13.723-13.701-13.699z"></path><path fill="url(#google-play-d)" d="M230.868 418.615c.357.121.804.063 1.288-.201l16.747-9.209-4.312-4.312-13.723 13.722z"></path></symbol><symbol viewBox="75 637 50 50" id="icon-calendar"><path d="M252.2 645.9c-.3 0-.5-.1-.8-.2L229 632.9c-.8-.4-1-1.4-.6-2.2.4-.8 1.4-1 2.2-.6l21.6 12.3 21.8-12.5c.8-.4 1.8-.2 2.2.6.4.8.2 1.8-.6 2.2l-22.6 13c-.2.1-.5.2-.8.2zm-166.1-6.1h5.6v5.6h-5.6zm16.7 0h5.6v5.6h-5.6z"></path><path d="M116.7 676.1v-30.7c0-1.5-1.2-2.8-2.8-2.8h-2.8v2.8c0 1.5-1.2 2.8-2.8 2.8h-5.6c-1.5 0-2.8-1.2-2.8-2.8v-2.8h-5.6v2.8c0 1.5-1.2 2.8-2.8 2.8h-5.6c-1.5 0-2.8-1.2-2.8-2.8v-2.8h-2.8c-1.5 0-2.8 1.2-2.8 2.8v30.7c0 1.5 1.2 2.8 2.8 2.8h33.5c1.7 0 2.9-1.3 2.9-2.8z"></path><path d="M119.5 648.2v33.4H83.3c0 1.5 1.2 2.8 2.8 2.8h33.5c1.5 0 2.8-1.2 2.8-2.8V651c-.1-1.6-.1-2.8-2.9-2.8z"></path></symbol><symbol viewBox="0 0 26.2 37.2" id="icon-category-1"><path fill="none" stroke="#44A8EF" stroke-width=".8" stroke-miterlimit="10" d="M2.7 14.9c.2.9.6 1.8 1.3 2.6l2.6 2.6m-3.9-6.9c-.1.1 0-.1 0 0" stroke-linecap="round" stroke-linejoin="round"></path><path fill="none" stroke="#EF4F62" stroke-width=".8" stroke-miterlimit="10" d="M23.2 12.1c-.2-.5-.6-1-1-1.4-.9-.9-2.1-1.4-3.4-1.4-1.3 0-2.5.5-3.4 1.4l-.6.6" stroke-linecap="round" stroke-linejoin="round"></path><path fill="none" stroke="#404648" stroke-width=".8" stroke-miterlimit="10" d="M12.4 9.1c-2.7-2.7-7.2-2.7-9.9 0s-2.7 7.2 0 9.9l2.7 2.7 6.7-6.7" stroke-linecap="round" stroke-linejoin="round"></path><g fill="none" stroke="#404648" stroke-width=".8" stroke-miterlimit="10" stroke-linecap="round" stroke-linejoin="round"><path d="M10.5 28.3c-.5.5-.5 1.4 0 2 .5.5 1.4.5 2 0l.8-.8c-.1-.4.1-.8.4-1.2.3-.3.8-.5 1.2-.4m4.4-4.4c-.1-.4.1-.8.4-1.2.3-.3.8-.5 1.2-.4l2.9-2.9c2.7-2.7 2.7-7.2 0-9.9s-7.2-2.7-9.9 0l-.6.6"></path><circle cx="18.7" cy="25.3" r="1.4"></circle><circle cx="16.7" cy="27.3" r="1.4"></circle><circle cx="20.6" cy="23.3" r="1.4"></circle><path d="M8.5 26.3c-.5.5-.5 1.4 0 2 .5.5 1.4.5 2 0l5.8-5.8"></path><path d="M6.6 24.3c-.5.5-.5 1.4 0 2 .5.5 1.4.5 2 0l5.8-5.8M13 13.9l-8.4 8.4c-.5.5-.5 1.4 0 2 .5.5 1.4.5 2 0l5.8-5.8"></path></g><path fill="none" stroke="#404648" stroke-width=".8" stroke-miterlimit="10" d="M7 12.8l.6.9c1.4 1.4 4.2 1.1 5.2 0l3.8 3.8c.5.5 1.4.5 2 0 .5-.5.5-1.4 0-2L12 8.7" stroke-linecap="round" stroke-linejoin="round"></path><circle cx="14.7" cy="29.3" r="1.4" fill="none" stroke="#404648" stroke-width=".8" stroke-miterlimit="10" stroke-linecap="round" stroke-linejoin="round"></circle><path fill="none" stroke="#404648" stroke-width=".8" stroke-miterlimit="10" d="M17.2 16s.6-.2 1-1" stroke-linecap="round" stroke-linejoin="round"></path><path fill="none" stroke="#EF4F62" stroke-width=".8" stroke-miterlimit="10" d="M13.1 34.2v2.6m-4.6-4.1l-1 1.5m10.3-1.5l.9 1.5" stroke-linecap="round" stroke-linejoin="round"></path><path fill="none" stroke="#44A8EF" stroke-width=".8" stroke-miterlimit="10" d="M13.1 3V.4m4.7 4.1l.9-1.5M8.5 4.5L7.5 3" stroke-linecap="round" stroke-linejoin="round"></path></symbol><symbol viewBox="0 0 40 40" id="icon-category-10"><path fill="none" stroke="#44A8EF" stroke-miterlimit="10" d="M32.7 2.3l-2.5 4.4m-2.3-3.8l-.3 3.7m7.1.2l-3.1 2.1" stroke-linecap="round" stroke-linejoin="round"></path><path fill="#AFB6B9" d="M20.4 8.3c-6.7 0-12.2 5.4-12.2 12.2s5.4 12.2 12.2 12.2 12.2-5.4 12.2-12.2S27.2 8.3 20.4 8.3zm0 22.1c-5.5 0-10-4.5-10-10s4.5-10 10-10 10 4.5 10 10-4.5 10-10 10z"></path><path fill="none" stroke="#404648" stroke-width=".8" stroke-miterlimit="10" d="M30.2 13l-2.5-2.5c2.2 2.2 3.6 5.2 3.6 8.6 0 6.7-5.4 12.2-12.2 12.2-3.3 0-6.3-1.3-8.5-3.4l2.5 2.5c2.2 2.2 5.2 3.6 8.6 3.6 6.7 0 12.2-5.4 12.2-12.2 0-3.5-1.5-6.6-3.7-8.8zm-2.6-2.6z" stroke-linecap="round" stroke-linejoin="round"></path><circle cx="19" cy="19" r="12.2" fill="none" stroke="#404648" stroke-width=".8" stroke-miterlimit="10" stroke-linecap="round" stroke-linejoin="round"></circle><circle cx="19" cy="19" r="10" fill="none" stroke="#404648" stroke-width=".8" stroke-miterlimit="10" stroke-linecap="round" stroke-linejoin="round"></circle><path fill="none" stroke="#404648" stroke-width=".8" stroke-miterlimit="10" d="M15.7 21.4s.3 2.8 2.9 3.1c1.3.1 3-.1 3.7-1.3.8-1.2.4-2.7-1-3.3-.7-.3-1.5-.6-2.2-.8-.8-.3-1.6-.5-2.2-.8-1.4-.6-1.8-2-1-3.3.8-1.2 2.4-1.4 3.7-1.3 1.9.2 2.7 1.7 2.7 2.6M19 11.4v2.2m0 10.8v2.3" stroke-linecap="round" stroke-linejoin="round"></path><clipPath id="icon-category-10-b"><use xlink:href="#icon-category-10-a" overflow="visible"></use></clipPath><g fill="none" stroke="#404648" stroke-width=".8" stroke-miterlimit="10" clip-path="url(#icon-category-10-b)" stroke-linecap="round" stroke-linejoin="round"><path d="M21 32.9l5.3 5.2m-2.2-5.6l4.2 4.2m-1.7-5.2L30 35m-1.4-5l3.2 3.2m-1.5-4.9l3.2 3.2m-1.8-5.3l3.6 3.5m-2.7-6.1L37 28m-4-7.4l5.2 5.2"></path></g><path fill="none" stroke="#FCB93B" stroke-width=".8" stroke-miterlimit="10" d="M15.1 12.1c-1.9 1.1-3.3 2.9-3.9 5.2M23 26c1.9-1.1 3.3-2.9 3.9-5.2m-3.2 15c6.7 0 12.2-5.4 12.2-12.2" stroke-linecap="round" stroke-linejoin="round"></path></symbol><symbol viewBox="0 0 40 40" id="icon-category-112"><clipPath id="icon-category-112-b"><use xlink:href="#icon-category-112-a" overflow="visible"></use></clipPath><g clip-path="url(#icon-category-112-b)"><path fill="#767F83" d="M28.1 23.7c1.1 0 2-.9 2-2s-.9-2-2-2c-.5 0-1 .2-1.3.5 0-.2.1-.3.1-.5 0-1.1-.9-2-2-2-.6 0-1.2.3-1.6.8-.2-.9-1-1.6-2-1.6s-1.8.7-2 1.6c-.4-.5-.9-.8-1.6-.8-1.1 0-2 .9-2 2 0 .2 0 .3.1.5-.4-.3-.8-.5-1.3-.5-1.1 0-2 .9-2 2s.9 2 2 2"></path><path fill="none" stroke="#404648" stroke-width=".8" stroke-miterlimit="10" d="M26.4 22c1.1 0 2-.9 2-2s-.9-2-2-2c-.5 0-1 .2-1.3.5 0-.2.1-.3.1-.5 0-1.1-.9-2-2-2-.6 0-1.2.3-1.6.8-.2-.9-1-1.6-2-1.6s-1.8.7-2 1.6c-.4-.5-.9-.8-1.6-.8-1.1 0-2 .9-2 2 0 .2 0 .3.1.5-.4-.3-.8-.5-1.3-.5-1.1 0-2 .9-2 2s.9 2 2 2" stroke-linecap="round" stroke-linejoin="round"></path><path fill="none" stroke="#404648" stroke-width=".8" stroke-miterlimit="10" d="M14.7 19.2c-.3-.7-1-1.1-1.8-1.1-1.1 0-2 .9-2 2 0 .5.2.9.5 1.3m10.9-.6c.5-.4.9-1 .9-1.7 0-1.1-.9-2-2-2-1 0-1.9.8-2 1.8m0-.6c-.3-.2-.7-.3-1-.3-1.1 0-2 .9-2 2 0 .5.2.9.4 1.3" stroke-linecap="round" stroke-linejoin="round"></path></g><clipPath id="icon-category-112-d"><use xlink:href="#icon-category-112-c" overflow="visible"></use></clipPath><path fill="#AFB6B9" d="M37.1 25.9H8.9l-1.2 4.2c-.2.6-.1 1.2.2 1.7h30.2c.3-.5.4-1.1.2-1.7l-1.2-4.2z" clip-path="url(#icon-category-112-d)"></path><path fill="none" stroke="#404648" stroke-width=".8" stroke-miterlimit="10" d="M11.9 23.6h23.9M8.2 29.5h27.2" clip-path="url(#icon-category-112-d)" stroke-linecap="round" stroke-linejoin="round"></path><path fill="none" stroke="#404648" stroke-width=".8" stroke-miterlimit="10" d="M33 32.5H7c-1.6 0-2.7-1.5-2.3-3l2.1-7.1c.3-1 1.2-1.7 2.3-1.7H31c1 0 2 .7 2.3 1.7l2.1 7.1c.3 1.5-.8 3-2.4 3z" stroke-linecap="round" stroke-linejoin="round"></path><path fill="none" stroke="#AFB6B9" stroke-width=".8" stroke-miterlimit="10" d="M35 34.5H8.9" stroke-linecap="round" stroke-linejoin="round"></path><path fill="none" stroke="#404648" stroke-width=".8" stroke-miterlimit="10" d="M25.2 18.1c0 .4-.1.7-.3 1m7.2 6.5h2m-1.5 2h2" stroke-linecap="round" stroke-linejoin="round"></path><path fill="none" stroke="#963A92" stroke-width=".8" stroke-miterlimit="10" d="M20 11.8V7.5m-4.8 3.9l-.6-2m-3.2 5L9 10.7m15.8.7l.6-2m3.2 5l2.4-3.7" stroke-linecap="round" stroke-linejoin="round"></path></symbol><symbol viewBox="0 0 40 40" id="icon-category-27"><path fill="#767F83" d="M21.9 23.9c-1 0-1.8-.8-1.8-1.8s.8-1.8 1.8-1.8 1.8.8 1.8 1.8-.8 1.8-1.8 1.8z"></path><path fill="#AFB6B9" d="M36.6 20.6c-.8-8.2-8.1-14.1-16.2-13.3-8.1.8-14.1 8.1-13.3 16.2.8 8.2 8.1 14.1 16.2 13.3 8.2-.8 14.1-8 13.3-16.2zm-26.2-3.7c2-4.4 6.3-7.4 11.4-7.4 5.1 0 9.5 3 11.4 7.4.1.8-.2 2-1.6 2-1.4 0-2.2-1.1-4.1-1.6-1.3-.4-3.5-.7-5.8-.7s-4.5.4-5.8.7c-1.9.5-2.7 1.6-4.1 1.6-1.2 0-1.5-1.1-1.4-2zM19 32.5c0 .4-.1.7-.4 1-.4.4-1 .5-1.5.3-3.1-1.3-5.6-3.8-6.9-6.9-.2-.5-.1-1.1.3-1.5.3-.3.6-.4 1-.4h1.9s.7 0 1 .2c.4.3.8.8.8.8.7 1.2 1.7 2.1 2.8 2.8 0 0 1 .5 1 1.4v2.3zm2.9-6.8c-2 0-3.6-1.6-3.6-3.6s1.6-3.6 3.6-3.6 3.6 1.6 3.6 3.6-1.6 3.6-3.6 3.6zm11.6 1.1c-1.3 3.1-3.8 5.5-6.9 6.9-.5.2-1.1.1-1.5-.3-.3-.3-.4-.6-.4-1v-2.3c0-.9 1-1.4 1-1.4 1.2-.7 2.1-1.6 2.8-2.8 0 0 .3-.6.8-.8.3-.2 1-.2 1-.2h1.9c.4 0 .7.1 1 .4.4.4.5 1 .3 1.5z"></path><path fill="none" stroke="#404648" stroke-width=".8" stroke-miterlimit="10" d="M17.5 28.7V31c0 .4-.1.7-.4 1-.4.4-1 .5-1.5.3-3.1-1.3-5.6-3.8-6.9-6.9-.2-.5-.1-1.1.3-1.5.3-.3.6-.4 1-.4h1.9s.7 0 1 .2c.4.3.8.8.8.8.7 1.2 1.7 2.1 2.8 2.8 0 0 1 .5 1 1.4zm5.7 0V31c0 .4.1.7.4 1 .4.4 1 .5 1.5.3 3.1-1.3 5.6-3.8 6.9-6.9.2-.5.1-1.1-.3-1.5-.3-.3-.6-.4-1-.4h-1.9s-.7 0-1 .2c-.4.3-.8.8-.8.8-.7 1.2-1.7 2.1-2.8 2.8 0 0-1 .5-1 1.4z" stroke-linecap="round" stroke-linejoin="round"></path><path fill="none" stroke="#404648" stroke-width=".8" stroke-miterlimit="10" d="M20.3 5.7c-8.2 0-14.8 6.6-14.8 14.8s6.6 14.8 14.8 14.8 14.8-6.6 14.8-14.8S28.5 5.7 20.3 5.7z" stroke-linecap="round" stroke-linejoin="round"></path><path fill="none" stroke="#404648" stroke-width=".8" stroke-miterlimit="10" d="M10.5 17.4c1.4 0 2.2-1.1 4.1-1.6 1.3-.4 3.5-.7 5.8-.7s4.5.4 5.8.7c1.9.5 2.7 1.6 4.1 1.6 1.4 0 1.7-1.1 1.6-2C29.8 11 25.4 8 20.3 8s-9.5 3-11.4 7.4c-.1.8.2 2 1.6 2zm-2.6 1.5c.2-1.2.5-2.4 1-3.5m-1 6.6c-.1-.5-.1-.9-.1-1.4 0-.6 0-1.1.1-1.6m13.9 14c-.5.1-.9.1-1.4.1-.6 0-1.1 0-1.6-.1m13.9-14.4c0 .2.1.5.1.7.2 1.8-.1 3.6-.6 5.2l-.1.3" stroke-linecap="round" stroke-linejoin="round"></path><circle cx="20.3" cy="20.5" r="1.8" fill="none" stroke="#404648" stroke-width=".8" stroke-miterlimit="10" stroke-linecap="round" stroke-linejoin="round"></circle><circle cx="20.3" cy="20.5" r="3.6" fill="none" stroke="#404648" stroke-width=".8" stroke-miterlimit="10" stroke-linecap="round" stroke-linejoin="round"></circle><path fill="none" stroke="#404648" stroke-width=".8" stroke-miterlimit="10" d="M9.7 19.8l1.1-.8 1.1.8m-2.2 1.5l1.1.8 1.1-.8m16.5-.8H31" stroke-linecap="round" stroke-linejoin="round"></path><path fill="none" stroke="#F06435" stroke-width=".8" stroke-miterlimit="10" d="M3.3 16.7c0 .1 0-.1 0 0m1.1-3.3c-.1.3-.3.6-.4 1m23.5-9.7c-2.7-1.2-5.7-1.8-8.9-1.5-5.9.6-10.8 4-13.5 8.8" stroke-linecap="round" stroke-linejoin="round"></path></symbol><symbol viewBox="0 0 40 40" id="icon-category-34"><path fill="none" stroke="#AFB6B9" stroke-width=".8" stroke-miterlimit="10" d="M13.2 21.5h-2.9m2.9 2.8h-2.9m2.9 2.9h-2.9m2.9 2.9h-2.9m19.3-8.6h-2.9m2.9 2.8h-2.9m2.9 2.9h-2.9m2.9 2.9h-2.9" stroke-linecap="round" stroke-linejoin="round"></path><g fill="none" stroke-width=".8" stroke-miterlimit="10" stroke-linecap="round" stroke-linejoin="round"><path stroke="#404648" d="M7.1 21.3L19.9 8.4l12.9 12.9"></path><path stroke="#EF4F62" d="M7.1 18L19.9 5.1l7.4 7.4 5.6-5.6"></path><path stroke="#404648" d="M19.9 32.9h9.7V21.4l-9.7-9.6-9.6 9.6v11.5h3.3"></path><path stroke="#80C56A" d="M12.3 34.9h19.2V23.4"></path><path stroke="#404648" d="M17 25.7s.2 2.4 2.5 2.7c1.2.1 2.6-.1 3.3-1.1.7-1.1.3-2.3-.9-2.8-.6-.3-1.3-.5-2-.7-.7-.2-1.4-.5-2-.7-1.2-.5-1.6-1.8-.9-2.8.7-1 2.1-1.2 3.3-1.1 1.6.2 2.4 1.5 2.4 2.3M19.9 17v1.9m0 9.4v2"></path></g><path fill="none" stroke="#EF4F62" stroke-width=".8" stroke-miterlimit="10" d="M32.4 11.5l.5-4.6-4.5.6" stroke-linecap="round" stroke-linejoin="round"></path></symbol><symbol viewBox="0 0 40 40" id="icon-category-45"><path fill="none" stroke="#404648" stroke-width=".8" stroke-miterlimit="10" d="M14.2 11.8v-3c0-.9.7-1.6 1.6-1.6h8.4c.9 0 1.6.7 1.6 1.6v4" stroke-linecap="round" stroke-linejoin="round"></path><path fill="none" stroke="#AFB6B9" stroke-miterlimit="10" d="M24 11.6V9.7c0-.4-.3-.7-.7-.7h-6.6c-.4 0-.7.3-.7.7v3.4" stroke-linecap="round" stroke-linejoin="round"></path><path fill="#AFB6B9" d="M24.5 24.6c4.2-.3 8-1.4 11.2-2.9v-5.8c0-.3-.3-.6-.6-.6h-26c-.3 0-.6.3-.6.6v5.8c3.2 1.6 7.1 2.7 11.2 2.9"></path><path fill="#F7F7F7" d="M22.4 22.9v2c0 .7-.6 1.3-1.3 1.3h-2.3c-.7 0-1.3-.6-1.3-1.3v-4c0-.7.6-1.3 1.3-1.3h2.3c.7 0 1.3.6 1.3 1.3v2"></path><clipPath id="icon-category-45-b"><use xlink:href="#icon-category-45-a" overflow="visible"></use></clipPath><path fill="none" stroke="#404648" stroke-width=".8" stroke-miterlimit="10" d="M22.5 22.5c11.6-.8 20.7-7.5 20.7-15.7C43.2-1.9 32.8-9 20-9S-3.2-1.9-3.2 6.8c0 8.2 9.1 14.9 20.8 15.7" clip-path="url(#icon-category-45-b)" stroke-linecap="round" stroke-linejoin="round"></path><use fill="none" stroke="#404648" stroke-width=".8" stroke-miterlimit="10" xlink:href="#icon-category-45-a" overflow="visible" stroke-linecap="round" stroke-linejoin="round"></use><path fill="none" stroke="#404648" stroke-width=".8" stroke-miterlimit="10" d="M22.4 22.9v2c0 .7-.6 1.3-1.3 1.3h-2.3c-.7 0-1.3-.6-1.3-1.3v-4c0-.7.6-1.3 1.3-1.3h2.3c.7 0 1.3.6 1.3 1.3v2m9.1.1v7.8m0-12.6v.9M12.1 13v-1.3H8.5V13m19.4 0v-1.3h3.6V13" stroke-linecap="round" stroke-linejoin="round"></path><path fill="none" stroke="#44A8EF" stroke-miterlimit="10" d="M35.7 34.3c0 .3-.3.6-.6.6h-26m10.2-10.2h1.5c.2 0 .4-.2.4-.4v-2.2" stroke-linecap="round" stroke-linejoin="round"></path></symbol><symbol viewBox="0 0 40 40" id="icon-category-72"><path fill="#AFB6B9" d="M33.1 25.7c-1.1-1-2.6-1.4-4-1.2-.6.1-1.2-.1-1.6-.5l-10.2-9.5c-.4-.4-.6-1-.6-1.6.1-1.4-.4-2.9-1.5-3.9-1.4-1.3-3.3-1.6-4.9-1l3.9 3.6-.7 2.4-2.4.7-3.9-3.6c-.5 1.7 0 3.6 1.3 4.8 1.1 1 2.6 1.4 4 1.2.6-.1 1.2.1 1.6.5l10.3 9.5c.4.4.6 1 .6 1.6-.1 1.6.6 3.3 2 4.3 1.8 1.2 4.2 1.1 5.8-.3 2.3-1.7 2.4-5.1.3-7zM32 31.2c-1.1 1.2-3 1.3-4.1.1s-1.3-3-.1-4.1c1.1-1.2 3-1.3 4.1-.1 1.1 1.1 1.2 2.9.1 4.1z"></path><path fill="#F7F7F7" d="M7.1 27.7l8.1-8.1c.4-.4 1-.7 1.7-.8.6 0 1.2-.3 1.7-.8l.1-.1c.4-.4.7-1 .8-1.7 0-.6.3-1.2.8-1.7.2-.2.6-.2.8 0l3.3 3.3c.2.2.2.6 0 .8-.4.4-1 .7-1.7.8-.6 0-1.2.3-1.7.8l-.1.1c-.4.4-.7 1-.8 1.7 0 .6-.3 1.2-.8 1.7l-8.1 8.1c-1.1 1.1-3 1.1-4.1 0-1.2-1.1-1.2-2.9 0-4.1z"></path><mask id="icon-category-72-b" width="28.4" height="27.1" x="5" y="5.6" maskUnits="userSpaceOnUse"><g filter="url(#icon-category-72-a)"><path fill="#FFF" d="M-3.5-6.5h46.7v48H-3.5z"></path><path d="M42.7-6v47H-3V-6h45.7m1-1H-4v49h47.7V-7z"></path><path d="M7.1 27.7l8.1-8.1c.4-.4 1-.7 1.7-.8.6 0 1.2-.3 1.7-.8l.1-.1c.4-.4.7-1 .8-1.7 0-.6.3-1.2.8-1.7l.4-.4 4.1 4.1-.4.4c-.4.4-1 .7-1.7.8-.6 0-1.2.3-1.7.8l-.1.1c-.4.4-.7 1-.8 1.7 0 .6-.3 1.2-.8 1.7l-8.1 8.1c-1.1 1.1-3 1.1-4.1 0-1.2-1.1-1.2-2.9 0-4.1z"></path></g></mask><path fill="none" stroke="#404648" stroke-width=".8" stroke-miterlimit="10" d="M25.8 22.4l-10.2-9.5c-.4-.4-.6-1-.6-1.6.1-1.4-.4-2.9-1.5-3.9-1.4-1.3-3.3-1.6-4.9-1l3.9 3.6-.6 2.5-2.4.7-3.9-3.7c-.5 1.7 0 3.6 1.3 4.8 1.1 1 2.6 1.4 4 1.2.6-.1 1.2.1 1.6.5l10.3 9.5c.4.4.6 1 .6 1.6-.1 1.6.6 3.3 2 4.3 1.8 1.2 4.2 1.1 5.8-.3 2.2-1.9 2.2-5.2.2-7.2-1.1-1-2.6-1.4-4-1.2-.6.2-1.2.1-1.6-.3zm4.5 7.2c-1.1 1.2-3 1.3-4.1.1-1.2-1.1-1.3-3-.1-4.1 1.1-1.2 3-1.3 4.1-.1 1.2 1 1.2 2.9.1 4.1zm-6.4-6l-9.4-8.8" stroke-linecap="round" stroke-linejoin="round" mask="url(#icon-category-72-b)"></path><g fill="none" stroke="#404648" stroke-width=".8" stroke-miterlimit="10" stroke-linecap="round" stroke-linejoin="round"><path d="M23.5 17l6.2-6.2 2.2-1.3 1.3-2.1-1.7-1.7L29.4 7 28 9.2l-6.1 6.2"></path><path d="M7.1 27.7l8.1-8.1c.4-.4 1-.7 1.7-.8.6 0 1.2-.3 1.7-.8l.1-.1c.4-.4.7-1 .8-1.7 0-.6.3-1.2.8-1.7.2-.2.6-.2.8 0l3.3 3.3c.2.2.2.6 0 .8-.4.4-1 .7-1.7.8-.6 0-1.2.3-1.7.8l-.1.1c-.4.4-.7 1-.8 1.7 0 .6-.3 1.2-.8 1.7l-8.1 8.1c-1.1 1.1-3 1.1-4.1 0-1.2-1.1-1.2-2.9 0-4.1zm8.5-4.4l-6.7 6.6m11.9-13l2.5 2.4"></path></g><path fill="none" stroke="#80C56A" stroke-width=".8" stroke-miterlimit="10" d="M8.8 34.3c1.1 1.1 3 1.1 4.1 0l8.1-8.1c.4-.4.7-1 .8-1.7 0-.6.3-1.2.8-1.7l.1-.1c.4-.4 1-.7 1.7-.8.6 0 1.2-.3 1.7-.8.2-.2.2-.6 0-.8l-1.1-.6.2-.2 6.2-6.2 2.2-1.3 1.3-2.1" stroke-linecap="round" stroke-linejoin="round"></path></symbol><symbol viewBox="0 0 40 40" id="icon-category-800"><path fill="#AFB6B9" d="M13.5 18h1.3v1.4h-1.3zm23-6.2c-.3-.7-.7-1.3-1.2-1.9-2.3-1.8-5.2-2.9-8.5-3 1.7 2.2 1.4 5 1.4 5 .7-.6 2.3-1 4.2-1 1.9-.2 3.5.3 4.1.9zm-15.9-4c-1.8.7-3.4 1.7-4.7 3 1.8 0 3.3.4 4 1-.1 0-.3-2.1.7-4z"></path><path fill="none" stroke="#44A8EF" stroke-miterlimit="10" d="M26.4 26.8h11.4" stroke-linecap="round" stroke-linejoin="round"></path><path fill="#AFB6B9" d="M11.4 34H18v2.6h-6.6z"></path><g fill="none" stroke-miterlimit="10" stroke-linecap="round" stroke-linejoin="round"><path stroke="#404648" stroke-width=".8" d="M15.2 19.5h-3.9c-2.2 0-4.1 1.8-4.1 4.1v14h12v-14c.1-2.3-1.7-4.1-4-4.1z"></path><circle cx="13.3" cy="26.1" r="1.4" stroke="#FCB93B"></circle><path stroke="#404648" stroke-width=".8" d="M15.7 16.2c0-1.2-1-2.2-2.2-2.2h-.4c-1.2 0-2.2 1-2.2 2.2m0 .1h6.7M10 32.6h6.6v2.6H10z"></path></g><path fill="none" stroke="#404648" stroke-width=".8" stroke-miterlimit="10" d="M33.6 32.7c-1.9-2.1-6.5-3.5-11.8-3.5-.7 0-1.4 0-2.1.1" stroke-linecap="round" stroke-linejoin="round"></path><g fill="none" stroke="#404648" stroke-width=".8" stroke-miterlimit="10" stroke-linecap="round" stroke-linejoin="round"><path d="M11.5 11.8c.7-.6 2.3-1 4.2-1 1.9 0 3.5.4 4.2 1 .7-.6 2.3-1 4.2-1 1.9 0 3.5.4 4.2 1 .7-.6 2.3-1 4.2-1 1.9 0 3.5.4 4.2 1-2-4.2-6.9-7.1-12.5-7.1-5.8 0-10.7 2.9-12.7 7.1z"></path><path d="M28.2 11.8s.5-5.2-4.2-7.1c-4.7 1.9-4.2 7.1-4.2 7.1M24 4.7V2.2m0 8.5v18.1"></path></g><path fill="none" stroke="#404648" stroke-width=".8" stroke-miterlimit="10" d="M14.8 19.5v-3.2m-3 0v3.2" stroke-linecap="round" stroke-linejoin="round"></path></symbol><symbol viewBox="991.3 425.8 172.3 144" id="icon-checkmark"><path d="M1055.3 525.5l-44.3-36.9-19.7 23.4 69 57.8 103.4-124.3-24.7-19.7z"></path></symbol><symbol viewBox="-4.999 0 99.997 125" id="icon-circle-x"><path d="M70.757 33.593l-9.352-9.348L45 40.649 28.594 24.245l-9.351 9.348 16.406 16.405-16.406 16.406 9.351 9.351L45 59.35l16.405 16.405 9.352-9.351-16.406-16.406 16.406-16.405zM45 100C17.385 100-4.999 77.613-4.999 49.998-4.999 22.387 17.385 0 45 0s49.998 22.387 49.998 49.998C94.998 77.613 72.615 100 45 100z"></path></symbol><symbol viewBox="0 0 10 5.6" id="icon-dropdown-chevron"><path fill="currentColor" d="M5 5.6c-.2 0-.3-.1-.4-.2L.2 1C0 .8 0 .4.2.2s.6-.2.8 0l4 4 4-4c.2-.2.6-.2.8 0s.2.6 0 .8L5.4 5.4c-.1.1-.2.2-.4.2z"></path></symbol><symbol viewBox="0 0 612 326.663" id="icon-dropdown"><path fill="currentColor" fill-rule="evenodd" d="M610.455 14.108C607.075 4.815 598.75 0 589.467 0H22.524C13.242 0 4.912 4.815 1.544 14.108-1.834 23.403.44 33.326 7.267 40.088L290.73 320.425c4.313 4.272 9.79 6.237 15.263 6.237 5.472 0 10.95-2.21 15.267-6.48L604.73 40.13c6.826-6.755 9.105-16.726 5.725-26.022z" clip-rule="evenodd"></path></symbol><symbol viewBox="0 0 24 24" id="icon-email-a-friend"><path fill="currentColor" d="M12 12.713L.015 3h23.97L12 12.713zm0 2.574L0 5.562V21h24V5.562l-12 9.725z"></path></symbol><symbol viewBox="75 637 50 50" id="icon-email"><path d="M122.3 652l-20.1-13.7c-1.2-.8-3.1-.8-4.2 0L78 652c-1.2.8-2.1 2.6-2.1 4v24.9c0 1.4 1.1 2.7 2.6 2.7h43.4c1.4 0 2.6-1.3 2.6-2.7V656c-.1-1.4-1-3.2-2.2-4zm-1.4 6.7l-17.6 13c-.9.6-2 1-3.1 1-1.2 0-2.3-.3-3.1-1l-17.6-12.9c-1.7-1.3-1.5-2.5-1.4-3 .2-.5.8-1.5 3-1.5h38.3c2.2 0 2.8 1 3 1.5 0 .5.2 1.6-1.5 2.9zM-77.3 594c0 .9.7 1.7 1.7 1.7h49.9c.9 0 1.7-.7 1.7-1.7v-21.3h-53.2V594zm51.5-34.2h-49.9c-.9 0-1.7.7-1.7 1.7v8.4h53.2v-8.4c.1-1-.7-1.7-1.6-1.7zm-44.4 7c-.6.6-1.3.9-2.1.9s-1.5-.3-2.1-.9c-.5-.6-.9-1.3-.9-2.1s.3-1.6.9-2.1c1.1-1.1 3.1-1.1 4.2 0 .5.5.9 1.3.9 2.1 0 .9-.3 1.6-.9 2.1zm9.3.1c-.5.5-1.3.8-2.1.8s-1.5-.3-2.1-.8c-.6-.6-.9-1.3-.9-2.1s.3-1.6.9-2.1c1.1-1.1 3.1-1.1 4.2 0 .6.5.9 1.3.9 2.1s-.4 1.5-.9 2.1zm9.3 0c-.6.5-1.3.9-2 .9-.8 0-1.5-.3-2.1-.9-.6-.6-.9-1.3-.9-2.1 0-.7.3-1.5.9-2 1.2-1.1 3.1-1.1 4.2 0 .6.5.9 1.3.9 2.1-.1.7-.5 1.4-1 2zm124.9 18.7c-.8-.5-2-.4-2.7.3l-5.4 5.4c-.7.7-1.8.7-2.5 0l-12.1-12.1c-.7-.7-.7-1.8 0-2.5l5.1-5.1c.7-.7.8-1.9.2-2.6l-9.1-13c-.5-.8-1.6-.9-2.4-.3 0 0-7.2 5.7-7.2 10.9 0 21.4 17.4 38.8 38.8 38.8 5.2 0 10.3-9.6 10.3-9.6.4-.8.2-1.9-.7-2.5l-12.3-7.7z"></path></symbol><symbol viewBox="0 0 24 24" id="icon-external-link"><path d="M19.8 1h-5.5c-.4 0-.8.4-.8.8s.4.8.8.8H18l-7.8 7.8c-.3.3-.3.8 0 1.1.2.2.4.2.6.2.2 0 .4-.1.6-.2L19 3.8v3.5c0 .4.4.8.8.8s.8-.4.8-.8V1.8c0-.5-.4-.8-.8-.8z"></path><path d="M17 9c-.4 0-.8.4-.8.8v6.3c0 .3-.2.5-.5.5H5.5c-.3 0-.5-.2-.5-.5V5.9c0-.3.2-.5.5-.5h6.3c.4 0 .8-.4.8-.8s-.4-.8-.8-.8H5.5c-1.2 0-2.1 1-2.1 2.1v10.2c0 1.2 1 2.1 2.1 2.1h10.2c1.2 0 2.1-1 2.1-2.1V9.8c0-.4-.4-.8-.8-.8z"></path></symbol><symbol viewBox="0 0 322 324" id="icon-facebook-messenger"><path fill="currentColor" d="M162 6.035C76.398 6.035 7 70.69 7 150.445c0 45.447 22.54 85.982 57.762 112.46v55.06l52.78-29.147c14.085 3.922 29.003 6.04 44.458 6.04 85.602 0 155-64.65 155-144.41C317 70.69 247.602 6.034 162 6.034zm15.402 194.477l-39.47-42.365-77.02 42.365 84.72-90.502 40.438 42.365 76.05-42.365-84.718 90.502z"></path></symbol><symbol viewBox="0 0 6.9 14.1" id="icon-facebook"><style><![CDATA[.st0{clip-path:url(#SVGID_2_);fill:currentColor}]]></style><clipPath id="icon-facebook-SVGID_2_"><use xlink:href="#icon-facebook-SVGID_1_" overflow="visible"></use></clipPath><path d="M1.8 14.1V7.5H0V5.1h1.8v-2c0-1.6 1-3.1 3.4-3.1 1 0 1.7.1 1.7.1l-.1 2.2H5.3c-.9 0-1 .4-1 1.1v1.7h2.6l-.2 2.4H4.3v6.6H1.8z" class="st0"></path></symbol><symbol viewBox="0 0 612 612" id="icon-geolocation"><path fill="currentColor" d="M0 306.003l229.5 76.5L305.996 612 612 0"></path></symbol><symbol viewBox="0 0 100 125" id="icon-important"><path d="M98.692 80.351L58.485 8.793a9.767 9.767 0 0 0-17.027 0L1.252 80.351a9.765 9.765 0 0 0 8.513 14.548h80.413a9.764 9.764 0 0 0 9.763-9.764 9.783 9.783 0 0 0-1.249-4.784zM44.045 59.222V33.387c.085-4.008 2.388-6.652 5.97-6.652 3.58 0 5.968 2.729 5.968 6.652v27.116c-.085 4.092-2.388 6.649-5.968 6.649-3.582 0-5.97-2.643-5.97-6.649v-1.281zm5.965 25.522c-3.775 0-6.844-3.068-6.844-6.845s3.068-6.765 6.844-6.765c3.776 0 6.764 2.988 6.764 6.765s-2.988 6.845-6.764 6.845z"></path></symbol><symbol viewBox="75 637 50 50" id="icon-other-ads"><path d="M58.2 546.9v33.5H21.9c0 1.5 1.2 2.8 2.8 2.8h33.5c1.5 0 2.8-1.2 2.8-2.8v-30.7c0-1.6 0-2.8-2.8-2.8zm32.9 135.4h30.8c1.5 0 1.5 0 1.5-1.5v-21.6c0-1.5 0-1.5-1.5-1.5h-1.5v21.6H89.5v1.5c0 1.5 0 1.5 1.6 1.5zm-6.2-6.1h30.8c1.5 0 1.5 0 1.5-1.5V653c0-1.5 0-1.5-1.5-1.5h-1.5V673H83.4v1.5c-.1 1.7-.1 1.7 1.5 1.7zm-6.2-6.2h30.8c1.5 0 1.5 0 1.5-1.5v-21.6c0-1.5 0-1.5-1.5-1.5H78.7c-1.5 0-1.5 0-1.5 1.5v21.6c0 1.5 0 1.5 1.5 1.5z"></path></symbol><symbol viewBox="75 637 50 50" id="icon-phone"><path d="M-25.8 559.8h-49.9c-.9 0-1.7.7-1.7 1.7v8.4h53.2v-8.4c.1-1-.7-1.7-1.6-1.7zm-44.4 7c-.6.6-1.3.9-2.1.9s-1.5-.3-2.1-.9c-.5-.6-.9-1.3-.9-2.1s.3-1.6.9-2.1c1.1-1.1 3.1-1.1 4.2 0 .5.5.9 1.3.9 2.1 0 .9-.3 1.6-.9 2.1zm9.3.1c-.5.5-1.3.8-2.1.8s-1.5-.3-2.1-.8c-.6-.6-.9-1.3-.9-2.1s.3-1.6.9-2.1c1.1-1.1 3.1-1.1 4.2 0 .6.5.9 1.3.9 2.1s-.4 1.5-.9 2.1zm9.3 0c-.6.5-1.3.9-2 .9-.8 0-1.5-.3-2.1-.9-.6-.6-.9-1.3-.9-2.1 0-.7.3-1.5.9-2 1.2-1.1 3.1-1.1 4.2 0 .6.5.9 1.3.9 2.1-.1.7-.5 1.4-1 2zm162.9 99.2c-.7-.5-1.9-.3-2.5.3l-5 5c-.6.6-1.6.6-2.3 0l-11.2-11.2c-.6-.6-.6-1.6 0-2.3l4.7-4.7c.6-.6.7-1.7.2-2.4l-8.5-12.1c-.5-.7-1.5-.9-2.2-.3 0 0-6.6 5.3-6.6 10.1 0 19.8 16.1 35.9 35.9 35.9 4.8 0 9.6-8.9 9.6-8.9.4-.8.1-1.8-.6-2.3l-11.5-7.1z"></path></symbol><symbol viewBox="526.6 222.5 546.8 455.1" id="icon-pictures"><path d="M1027.5 326v27.2l17 1.7-20.3 293.8-388.9-28.9-30.6-3.4-1.7 27.2 444.9 33.9h1.7l23.8-348.1"></path><path d="M973.2 222.5H526.6v349.8h448.3V222.5h-1.7zM553.8 545.1V249.6h394v293.8h-394v1.7z"></path></symbol><symbol viewBox="0 0 512 512" id="icon-pinterest"><path fill="currentColor" d="M267.967.01C128.71.01 58.447 100.192 58.447 183.75c0 50.56 19.108 95.56 60.06 112.37 6.703 2.75 12.733.095 14.67-7.373 1.376-5.157 4.564-18.19 5.985-23.564 1.968-7.406 1.188-10-4.203-16.438-11.813-13.937-19.36-32.03-19.36-57.654 0-74.34 55.42-140.9 144.337-140.9 78.715 0 121.963 48.278 121.963 112.745 0 84.777-37.404 156.37-92.934 156.37-30.67 0-53.606-25.438-46.278-56.654 8.827-37.28 25.89-77.497 25.89-104.37 0-24.094-12.875-44.156-39.546-44.156-31.342 0-56.528 32.562-56.528 76.122 0 27.75 9.36 46.56 9.36 46.56S149.77 373.185 144.145 397.06c-11.203 47.56 1.078 114.933 1.078 114.933s45.248-51.498 57.95-97.715c3.594-13.096 20.625-80.842 20.625-80.842 10.17 19.498 39.918 36.653 71.603 36.653 94.215 0 158.148-86.186 158.148-201.587C453.554 81.287 379.917.01 267.968.01z"></path></symbol><symbol viewBox="0 0 612 612" id="icon-search"><path fill="currentColor" d="M608.76 530.96L463.98 385.1c23.56-38.47 37.18-83.874 37.18-132.61C501.16 113.15 388.902 0 250.59 0 112.033 0 0 113.152 0 252.49c0 139.602 112.046 252.757 250.59 252.757 50.814 0 97.9-15.232 137.3-41.21l143.755 144.852c7.442 7.48 26.028 1.004 41.413-14.453l21.555-21.776c15.385-15.46 21.813-34.19 14.148-41.7zM250.583 421.315c-92.46 0-167.552-75.665-167.552-168.826 0-93.16 75.092-168.588 167.552-168.588 92.442 0 167.31 75.427 167.31 168.588 0 93.18-74.87 168.826-167.31 168.826z"></path></symbol><symbol viewBox="75 637 50 50" id="icon-time"><path d="M100.4 648.2c1.8 0 3.3 1.5 3.3 3.2v9.4l7.2 4.5c.8.4 1.2 1.3 1.2 2.2 0 .7-.2 1.3-.7 2-.6.9-1.6 1.2-2.6 1.2-.7 0-1.2-.2-1.8-.5l-8.9-5.6c-.8-.5-1.2-1.6-1.2-2.7v-10.4c0-1.9 1.6-3.3 3.5-3.3zm0-10.1c-13 0-23.4 10.5-23.4 23.4S87.4 685 100.4 685c12.8 0 23.4-10.5 23.4-23.4s-10.6-23.5-23.4-23.5z"></path></symbol><symbol viewBox="0 0 128 128" id="icon-twitter"><g fill-rule="evenodd" clip-rule="evenodd"><path fill="none" d="M0 0h128v128H0z"></path><path fill="currentColor" d="M128 23.294a51.277 51.277 0 0 1-15.08 4.237c5.425-3.327 9.588-8.605 11.55-14.89a51.776 51.776 0 0 1-16.688 6.525c-4.778-5.23-11.608-8.498-19.166-8.498-14.493 0-26.25 12.057-26.25 26.927 0 2.11.224 4.16.675 6.133C41.218 42.6 21.87 31.892 8.91 15.582a27.427 27.427 0 0 0-3.554 13.552c0 9.338 4.636 17.58 11.683 22.412-4.298-.13-8.356-1.356-11.902-3.36v.332c0 13.05 9.053 23.937 21.074 26.403-2.2.633-4.523.95-6.92.95-1.69 0-3.343-.163-4.944-.48 3.343 10.695 13.035 18.484 24.53 18.692-8.986 7.227-20.315 11.533-32.614 11.533-2.12 0-4.215-.123-6.266-.37 11.623 7.627 25.432 12.088 40.255 12.088 48.31 0 74.717-41.026 74.717-76.612 0-1.17-.023-2.34-.068-3.49a53.825 53.825 0 0 0 13.098-13.936"></path></g></symbol><symbol viewBox="75 637 50 50" id="icon-website"><path d="M216.3 654.7l-20-13.7c-1.2-.8-3.1-.8-4.2 0L172 654.7c-1.2.8-2.1 2.6-2.1 4v24.9c0 1.4 1.1 2.7 2.6 2.7h43.4c1.4 0 2.6-1.3 2.6-2.7v-24.9c-.1-1.4-1-3.2-2.2-4zm-1.4 6.7l-17.6 13c-.9.6-2 1-3.1 1-1.2 0-2.3-.3-3.1-1l-17.6-12.9c-1.7-1.3-1.5-2.5-1.4-3s.8-1.5 3-1.5h38.3c2.2 0 2.8 1 3 1.5 0 .4.2 1.6-1.5 2.9zM75.5 678.8c0 .7.6 1.3 1.3 1.3h40.7c.7 0 1.3-.6 1.3-1.3v-17.4H75.5v17.4z"></path><path d="M122.3 645.9H81c-.7 0-1.3.6-1.3 1.3v1.4h40c.7 0 1.3.6 1.3 1.3v21.5h1.4c.7 0 1.3-.6 1.3-1.3v-22.9c-.1-.7-.7-1.3-1.4-1.3z"></path><path d="M117.6 650.9H76.8c-.7 0-1.3.6-1.3 1.3v6.9h43.4v-6.9c0-.7-.6-1.3-1.3-1.3zm-36.3 5.7c-.5.5-1.1.7-1.7.7-.6 0-1.3-.3-1.7-.7-.4-.5-.7-1.1-.7-1.7 0-.6.3-1.3.7-1.7.9-.9 2.5-.9 3.4 0 .4.4.7 1.1.7 1.7 0 .7-.2 1.3-.7 1.7zm7.6.1c-.4.4-1.1.7-1.7.7-.6 0-1.2-.3-1.7-.7-.5-.5-.7-1.1-.7-1.7 0-.6.3-1.3.7-1.7.9-.9 2.5-.9 3.4 0 .5.4.7 1.1.7 1.7 0 .6-.2 1.2-.7 1.7zm7.6 0c-.5.4-1.1.7-1.7.7-.6 0-1.2-.3-1.7-.7-.5-.5-.7-1.1-.7-1.7 0-.6.3-1.2.7-1.7 1-.9 2.5-.9 3.4 0 .5.4.7 1.1.7 1.7 0 .6-.3 1.2-.7 1.7zm95.8 48.9c-.7-.5-1.9-.3-2.5.3l-5 5c-.6.6-1.6.6-2.3 0l-11.2-11.2c-.6-.6-.6-1.6 0-2.3l4.7-4.7c.6-.6.7-1.7.2-2.4l-8.5-12.1c-.5-.7-1.5-.9-2.2-.3 0 0-6.6 5.3-6.6 10.1 0 19.8 16.1 35.9 35.9 35.9 4.8 0 9.6-8.9 9.6-8.9.4-.8.1-1.8-.6-2.3l-11.5-7.1z"></path></symbol><symbol viewBox="0 0 90 90" id="icon-whatsapp"><path fill="currentColor" d="M90 43.8C90 68 70.2 87.6 45.8 87.6c-7.7 0-15-2-21.4-5.5L0 90l8-23.5c-4-6.6-6.3-14.4-6.3-22.6C1.6 19.6 21.4 0 45.8 0 70.2 0 90 19.6 90 43.8zM45.8 7C25.3 7 8.7 23.5 8.7 43.8c0 8.1 2.6 15.5 7.1 21.6l-4.6 13.7 14.3-4.5c5.9 3.9 12.9 6.1 20.4 6.1C66.3 80.7 83 64.2 83 43.8S66.3 7 45.8 7zm22.3 46.9c-.3-.4-1-.7-2.1-1.3-1.1-.5-6.4-3.1-7.4-3.5-1-.4-1.7-.5-2.4.5-.7 1.1-2.8 3.5-3.4 4.2-.6.7-1.3.8-2.3.3-1.1-.5-4.6-1.7-8.7-5.3-3.2-2.8-5.4-6.4-6-7.4-.6-1.1-.1-1.7.5-2.2.5-.5 1.1-1.3 1.6-1.9.5-.6.7-1.1 1.1-1.8.4-.7.2-1.3-.1-1.9-.3-.5-2.4-5.8-3.3-8-.9-2.1-1.8-1.8-2.4-1.8-.6 0-1.4-.1-2.1-.1s-1.9.3-2.9 1.3c-1 1.1-3.8 3.7-3.8 9s3.9 10.4 4.4 11.1c.5.7 7.5 11.9 18.5 16.2 11 4.3 11 2.9 13 2.7 2-.2 6.4-2.6 7.3-5.1.8-2.4.8-4.5.5-5z"></path></symbol><symbol viewBox="0 0 1000 1000" id="icon-x"><path d="M588.333 500l393.334-393.333C993.333 95 1000 80 1000 62.5 1000 28.333 971.667 0 937.5 0c-16.667 0-32.5 7.5-44.167 18.333L500 411.667 106.667 18.333C95 7.5 80 0 62.5 0 28.333 0 0 28.333 0 62.5 0 80 7.5 95 18.333 106.667L411.667 500 18.333 893.333C7.5 905 0 920.833 0 937.5c0 34.167 28.333 62.5 62.5 62.5 17.5 0 32.5-6.667 44.167-18.333L500 588.333l393.333 393.334C905 993.333 920.833 1000 937.5 1000c34.167 0 62.5-28.333 62.5-62.5 0-16.667-6.667-32.5-18.333-44.167z"></path></symbol><symbol viewBox="0 0 178.5 63" id="ikea-logo"><path fill="#0051BA" d="M165.6 62V5.4H1.4V62h164.2z"></path><path fill="#F9D616" d="M83.5 60.6c44.7 0 80.9-12 80.9-26.8S128.2 7 83.5 7 2.6 19 2.6 33.8c0 14.7 36.2 26.8 80.9 26.8z"></path><path fill="#0051BA" d="M38.9 44.9c.4 0 .5-.2.3-.4s-.4-1.4-.4-2.7V26.5c0-1.3.3-2.5.4-2.7.2-.2.1-.4-.3-.4H25.1c-.4 0-.5.2-.3.4s.4 1.4.4 2.7v15.2c0 1.3-.3 2.5-.4 2.7-.2.2-.1.4.3.4h13.8v.1zm20.7-13.8l5-6.8c.2-.2.1-.5.1-.6 0-.1 0-.2.1-.2h13.6c.2 0 .1.1 0 .2l-5.6 7.8c-.3.3-.2.6.1 1l7.7 12.2c.1.1.2.2 0 .2H64c-.1 0-.1-.1-.1-.2s.3-1.2.1-1.4l-4.3-6.6v5.1c0 1.3.3 2.5.4 2.7.2.2.1.4-.3.4H46.4c-.4 0-.5-.2-.3-.4s.4-1.4.4-2.7V26.5c0-1.3-.3-2.5-.4-2.7-.2-.2-.1-.4.3-.4h13.4c.4 0 .5.2.3.4s-.4 1.4-.4 2.7l-.1 4.6zm38.6 5.8c0-.1 0-.4.4-.4h5.3c.5 0 2.5-.1 2.7.1.2.2.4.1.4-.3v-5.1c0-.3-.2-.4-.4-.3-.2.2-2.1.1-2.7.1h-5.3c-.4 0-.4-.3-.4-.4v-1c0-.1 0-.4.4-.4h7.6c1.3 0 2.5.3 2.7.4.2.2.4.1.4-.3v-5.9h-24c-.4 0-.5.2-.3.4s.4 1.4.4 2.7v15.1c0 1.3-.3 2.5-.4 2.7-.2.2-.1.4.3.4h24v-6.3c0-.4-.2-.5-.4-.3s-1.4.4-2.7.4h-7.6c-.4 0-.4-.3-.4-.4v-1.2zm49 7.8s-8-18.9-8.1-19.2c-.1-.3-.2-.9 0-1.3.2-.5 0-.6-.3-.6h-18.6c-.3 0-.5.1-.3.6s.1 1 0 1.3c-.1.3-7.2 19.2-7.2 19.2h11.5c.3 0 .3-.1.2-.3-.1-.2-.1-.6 0-.9l.6-2c.2-.6.5-.7 1-.7h5c.5 0 .8.1 1 .7l.6 2c.1.3.1.7 0 .9-.1.2 0 .3.2.3h14.4zm-20.3-8.1c-.2 0-.2-.2-.1-.3l1.2-2.9c.1-.1.1-.2.2-.2s.1.1.2.2l1.2 2.9c.1.1 0 .3-.1.3h-2.6zM172 7.4c.7 0 1.4-.1 1.4-.9 0-.7-.7-.9-1.3-.9H171v1.8h1zm-1 3.3h-.9V4.9h2.2c1.4 0 2.1.5 2.1 1.7 0 1-.7 1.5-1.5 1.6l1.7 2.6h-1L172 8.2h-1v2.5zm1.1 1.3c2.3 0 4.1-1.8 4.1-4.2 0-2.4-1.8-4.2-4.1-4.2S168 5.4 168 7.8c-.1 2.4 1.7 4.2 4.1 4.2zm-5.2-4.2c0-2.9 2.4-5 5.1-5 2.8 0 5.1 2.1 5.1 5s-2.4 5.1-5.1 5.1c-2.7-.1-5.1-2.2-5.1-5.1z"></path></symbol><symbol viewBox="0 0 135 40" id="ios-app-store-fr"><path fill="#A6A6A6" d="M130.229 40H4.76C2.153 40 0 37.872 0 35.267V4.726C0 2.12 2.153 0 4.76 0h125.468C132.834 0 135 2.12 135 4.726v30.541c0 2.605-2.166 4.733-4.771 4.733z"></path><path d="M134.032 35.268a3.83 3.83 0 0 1-3.834 3.83H4.729a3.835 3.835 0 0 1-3.839-3.83V4.725A3.84 3.84 0 0 1 4.729.89h125.468a3.834 3.834 0 0 1 3.834 3.835l.001 30.543z"></path><path fill="#FFF" d="M30.159 19.784c-.029-3.223 2.639-4.791 2.761-4.864-1.511-2.203-3.853-2.504-4.676-2.528-1.967-.207-3.875 1.177-4.877 1.177-1.022 0-2.565-1.157-4.228-1.123-2.14.033-4.142 1.272-5.24 3.196-2.266 3.923-.576 9.688 1.595 12.859 1.086 1.553 2.355 3.287 4.016 3.226 1.625-.067 2.232-1.036 4.193-1.036 1.943 0 2.513 1.036 4.207.997 1.744-.028 2.842-1.56 3.89-3.127 1.255-1.78 1.759-3.533 1.779-3.623-.04-.014-3.387-1.291-3.42-5.154zm-3.2-9.478c.874-1.093 1.472-2.58 1.306-4.089-1.265.056-2.848.874-3.758 1.944-.806.942-1.526 2.486-1.34 3.938 1.421.106 2.88-.717 3.792-1.793zM45.175 31.504h-1.944V18.742h1.944v12.762zm5.076-12.456c-.516 1.812-1.128 3.3-1.836 4.464l-1.206.126a22.68 22.68 0 0 0 1.134-4.41l1.908-.18zm9.522 12.456h-2.07l-1.134-3.563h-3.942l-1.08 3.563h-2.016l3.906-12.132h2.412l3.924 12.132zm-3.546-5.059l-1.026-3.168c-.108-.323-.312-1.086-.612-2.286h-.036c-.12.516-.312 1.278-.576 2.286l-1.008 3.168h3.258zm13.589.576c0 1.488-.402 2.664-1.207 3.528-.72.769-1.614 1.152-2.682 1.152-1.152 0-1.98-.414-2.484-1.242h-.036v4.608h-1.944v-9.433a59.1 59.1 0 0 0-.072-2.88h1.71l.108 1.387h.036c.648-1.045 1.632-1.566 2.952-1.566 1.032 0 1.893.408 2.583 1.224.691.817 1.036 1.89 1.036 3.222zm-1.98.073c0-.852-.192-1.554-.576-2.105-.42-.576-.984-.864-1.692-.864-.48 0-.916.159-1.305.478-.39.317-.645.734-.765 1.25-.06.24-.09.438-.09.594v1.458c0 .637.195 1.174.585 1.611.39.438.897.657 1.521.657.732 0 1.302-.282 1.71-.846.408-.565.612-1.308.612-2.233zm12.043-.073c0 1.488-.402 2.664-1.207 3.528-.719.769-1.613 1.152-2.682 1.152-1.152 0-1.98-.414-2.484-1.242h-.035v4.608h-1.945v-9.433c0-.937-.023-1.896-.07-2.88h1.709l.107 1.387h.037c.648-1.045 1.631-1.566 2.951-1.566 1.033 0 1.893.408 2.584 1.224.689.817 1.035 1.89 1.035 3.222zm-1.981.073c0-.852-.191-1.554-.576-2.105-.42-.576-.984-.864-1.691-.864-.48 0-.916.159-1.305.478a2.2 2.2 0 0 0-.766 1.25c-.061.24-.09.438-.09.594v1.458c0 .637.195 1.174.584 1.611.391.438.898.657 1.521.657.732 0 1.303-.282 1.711-.846.407-.565.612-1.308.612-2.233zm13.229 1.009c0 1.031-.359 1.871-1.076 2.52-.791.708-1.893 1.062-3.305 1.062-1.307 0-2.354-.252-3.145-.756l.449-1.62a5.313 5.313 0 0 0 2.809.774c.732 0 1.303-.165 1.711-.496.408-.33.613-.772.613-1.325 0-.493-.168-.907-.504-1.244-.336-.336-.895-.649-1.674-.938-2.125-.793-3.188-1.953-3.188-3.479 0-.998.373-1.815 1.117-2.452s1.734-.956 2.971-.956c1.104 0 2.021.192 2.754.576l-.486 1.583c-.684-.372-1.459-.558-2.322-.558-.684 0-1.219.168-1.602.504a1.44 1.44 0 0 0-.486 1.099c0 .479.186.875.559 1.188.322.288.91.6 1.764.936 1.043.42 1.811.912 2.303 1.477s.738 1.264.738 2.105zm6.426-3.889h-2.141v4.248c0 1.08.377 1.62 1.133 1.62.348 0 .637-.03.865-.09l.053 1.476c-.383.145-.887.216-1.512.216-.768 0-1.367-.233-1.799-.702-.434-.468-.648-1.253-.648-2.357v-4.41h-1.279v-1.458h1.279v-1.602l1.908-.576v2.178h2.141v1.457zm9.666 2.845c0 1.343-.385 2.447-1.152 3.312-.805.888-1.871 1.332-3.203 1.332-1.285 0-2.309-.426-3.07-1.278-.762-.852-1.143-1.926-1.143-3.222 0-1.356.393-2.466 1.18-3.33.785-.864 1.844-1.296 3.176-1.296 1.285 0 2.316.426 3.096 1.277.743.828 1.116 1.896 1.116 3.205zm-2.016.062c0-.807-.174-1.498-.523-2.076-.408-.697-.988-1.047-1.746-1.047-.779 0-1.373.35-1.781 1.047-.348.578-.521 1.281-.521 2.111 0 .808.174 1.499.521 2.076.42.698 1.008 1.048 1.764 1.048.744 0 1.326-.355 1.746-1.065.358-.59.54-1.288.54-2.094zm8.332-2.655a3.3 3.3 0 0 0-.611-.054c-.684 0-1.213.258-1.584.773-.324.457-.486 1.033-.486 1.729v4.59h-1.943l.018-5.994c0-1.008-.023-1.926-.072-2.754h1.693l.07 1.674h.055c.205-.576.527-1.037.973-1.386a2.35 2.35 0 0 1 1.404-.468c.18 0 .342.012.484.035v1.855zm8.695 2.25c0 .349-.025.642-.072.882h-5.832c.023.864.307 1.524.846 1.98.492.408 1.129.611 1.908.611.863 0 1.65-.138 2.357-.413l.307 1.35c-.828.36-1.807.54-2.934.54-1.357 0-2.422-.398-3.195-1.197-.773-.798-1.16-1.869-1.16-3.213 0-1.32.359-2.418 1.078-3.294.758-.937 1.777-1.403 3.061-1.403 1.26 0 2.215.467 2.863 1.403.516.744.773 1.662.773 2.754zm-1.853-.504c.012-.576-.115-1.073-.379-1.494-.336-.54-.852-.81-1.549-.81-.635 0-1.15.264-1.547.791-.324.421-.516.925-.576 1.513h4.051zM47.84 7.778h-1.872v5.655H44.92V7.778h-1.862v-.882h4.782v.882zm5.141 3.075c0 .188-.014.346-.039.475h-3.143c.013.466.164.821.455 1.067.266.22.608.33 1.028.33.466 0 .89-.074 1.271-.223l.164.728c-.446.194-.973.291-1.581.291-.73 0-1.305-.215-1.722-.645s-.625-1.007-.625-1.731c0-.711.193-1.303.582-1.775.407-.504.956-.756 1.648-.756.679 0 1.193.252 1.542.756.28.4.42.895.42 1.483zm-1-.271a1.427 1.427 0 0 0-.203-.805c-.182-.291-.459-.437-.834-.437a.997.997 0 0 0-.835.427 1.577 1.577 0 0 0-.31.815h2.182zm.428-3.842l-1.174 1.406h-.728l.844-1.406h1.058zm3.141 6.693h-1.048V6.556h1.048v6.877zm5.743-2.58c0 .188-.014.346-.039.475h-3.143c.013.466.164.821.455 1.067.266.22.608.33 1.028.33.466 0 .89-.074 1.271-.223l.164.728c-.446.194-.973.291-1.581.291-.73 0-1.305-.215-1.722-.645s-.625-1.007-.625-1.731c0-.711.193-1.303.582-1.775.407-.504.956-.756 1.648-.756.679 0 1.193.252 1.542.756.281.4.42.895.42 1.483zm-1-.271a1.427 1.427 0 0 0-.203-.805c-.182-.291-.459-.437-.834-.437a.997.997 0 0 0-.835.427 1.577 1.577 0 0 0-.31.815h2.182zm.428-3.842l-1.174 1.406h-.727l.844-1.406h1.057zm5.46 2.105l-.203.795a2.062 2.062 0 0 0-.912-.194c-.459 0-.823.154-1.092.461-.268.307-.402.697-.402 1.169 0 .498.141.892.422 1.183s.639.437 1.072.437c.323 0 .64-.064.95-.194l.146.786c-.343.162-.775.243-1.3.243-.718 0-1.29-.218-1.717-.655s-.64-1.02-.64-1.751c0-.73.229-1.331.688-1.799s1.076-.703 1.853-.703c.44-.001.819.073 1.135.222zm5.528 4.588h-1.047v-2.68c0-.845-.316-1.268-.951-1.268-.484 0-.818.245-.999.735a1.283 1.283 0 0 0-.049.377v2.835h-1.048V6.556h1.048v2.841h.02c.331-.517.801-.775 1.417-.775.434 0 .791.142 1.076.427.355.355.533.883.533 1.581v2.803zm5.375 0h-.941l-.078-.543h-.029c-.322.433-.781.65-1.377.65-.445 0-.805-.143-1.076-.427a1.339 1.339 0 0 1-.369-.96c0-.576.24-1.015.723-1.319.482-.304 1.16-.453 2.033-.446V10.3c0-.621-.326-.931-.979-.931-.465 0-.875.117-1.229.349l-.213-.688c.438-.271.979-.407 1.617-.407 1.232 0 1.85.65 1.85 1.95v1.736c0 .471.023.846.068 1.124zm-1.088-1.62v-.727c-1.156-.02-1.734.297-1.734.95 0 .246.066.43.201.553a.733.733 0 0 0 .512.184c.23 0 .445-.073.641-.218a.893.893 0 0 0 .38-.742zm5.346-2.172a1.74 1.74 0 0 0-.33-.029c-.367 0-.652.139-.854.417-.174.246-.262.556-.262.931v2.474H78.85l.01-3.23c0-.543-.014-1.038-.039-1.484h.912l.039.902h.029c.109-.311.283-.56.523-.747.232-.168.484-.252.756-.252.098 0 .186.006.262.019v.999zm5.47-.922c-.025.382-.039.828-.039 1.339v2.696c0 1.015-.227 1.727-.678 2.134-.414.375-.996.562-1.746.562-.654 0-1.182-.123-1.582-.369l.242-.805c.395.239.842.359 1.34.359.924 0 1.387-.498 1.387-1.494v-.456h-.02c-.291.479-.754.718-1.387.718a1.76 1.76 0 0 1-1.406-.65c-.369-.433-.553-.983-.553-1.649 0-.756.213-1.368.639-1.833.395-.433.877-.65 1.445-.65.641 0 1.1.249 1.379.747h.018l.039-.65h.922zm-1.085 2.697v-.834c0-.317-.1-.588-.297-.815-.199-.227-.459-.339-.785-.339-.357 0-.65.148-.881.446-.23.298-.346.695-.346 1.193 0 .453.107.818.322 1.096.219.304.521.456.904.456.234 0 .443-.069.629-.208.186-.139.316-.328.395-.567.039-.118.059-.261.059-.428zm6.789-.563c0 .188-.014.346-.039.475h-3.143c.014.466.164.821.455 1.067.266.22.609.33 1.029.33.465 0 .889-.074 1.271-.223l.164.728c-.447.194-.973.291-1.582.291-.73 0-1.305-.215-1.721-.645-.418-.43-.625-1.007-.625-1.731 0-.711.193-1.303.582-1.775.406-.504.955-.756 1.648-.756.678 0 1.193.252 1.541.756.281.4.42.895.42 1.483zm-1-.271a1.411 1.411 0 0 0-.203-.805c-.182-.291-.459-.437-.834-.437a.995.995 0 0 0-.834.427 1.586 1.586 0 0 0-.311.815h2.182zm5.015-.941a1.74 1.74 0 0 0-.33-.029c-.369 0-.652.139-.854.417-.174.246-.262.556-.262.931v2.474h-1.049l.01-3.23c0-.543-.012-1.038-.037-1.484h.91l.039.902h.029a1.6 1.6 0 0 1 .523-.747c.234-.168.486-.252.758-.252.096 0 .184.006.262.019v.999zm8.362 3.792h-.932l-.049-.757h-.029c-.297.576-.801.864-1.512.864-.57 0-1.041-.223-1.416-.669s-.562-1.025-.562-1.736c0-.763.203-1.381.609-1.853.395-.44.881-.66 1.455-.66.635 0 1.078.213 1.33.64h.02V6.556h1.047v5.607c0 .459.013.882.039 1.27zm-1.086-1.988v-.786a1.184 1.184 0 0 0-.41-.965 1.027 1.027 0 0 0-.701-.257c-.389 0-.695.155-.92.466s-.336.708-.336 1.193c0 .466.107.844.322 1.135.227.31.531.465.914.465.344 0 .621-.129.828-.388.201-.239.303-.527.303-.863zm6.439 1.988h-.941l-.076-.543h-.029c-.324.433-.783.65-1.377.65-.447 0-.807-.143-1.078-.427a1.337 1.337 0 0 1-.367-.96c0-.576.24-1.015.723-1.319.48-.304 1.158-.453 2.031-.446V10.3c0-.621-.326-.931-.977-.931-.465 0-.875.117-1.23.349l-.213-.688c.439-.271.979-.407 1.617-.407 1.234 0 1.85.65 1.85 1.95v1.736c-.001.471.022.846.067 1.124zm-1.086-1.62v-.727c-1.158-.02-1.736.297-1.736.95 0 .246.068.43.203.553a.728.728 0 0 0 .51.184c.232 0 .445-.073.643-.218a.898.898 0 0 0 .38-.742zm6.945 1.62h-1.049v-2.7c0-.832-.316-1.248-.949-1.248a.95.95 0 0 0-.758.343 1.217 1.217 0 0 0-.291.808v2.796h-1.047v-3.366c0-.414-.014-.863-.039-1.349h.922l.049.737h.029c.121-.229.303-.418.543-.569.283-.176.602-.265.949-.265.441 0 .807.142 1.098.427.361.349.543.87.543 1.562v2.824zm4.725-1.354c0 .438-.162.79-.484 1.055-.324.265-.77.397-1.34.397-.537 0-.992-.107-1.367-.32l.223-.776c.363.22.748.33 1.154.33.537 0 .805-.197.805-.592a.577.577 0 0 0-.174-.432c-.117-.113-.324-.225-.621-.334-.84-.311-1.26-.763-1.26-1.358 0-.407.154-.747.465-1.019s.721-.407 1.232-.407c.465 0 .863.095 1.193.285l-.225.753a1.841 1.841 0 0 0-.959-.271c-.221 0-.393.052-.516.155a.5.5 0 0 0-.184.397c0 .161.064.293.193.396.111.097.324.203.641.319.816.309 1.224.783 1.224 1.422z"></path></symbol><symbol viewBox="0 0 135 40" id="ios-app-store"><path fill="#A6A6A6" d="M130.197 40H4.729A4.74 4.74 0 0 1 0 35.267V4.726A4.733 4.733 0 0 1 4.729 0h125.468C132.803 0 135 2.12 135 4.726v30.541c0 2.605-2.197 4.733-4.803 4.733z"></path><path d="M134.032 35.268a3.83 3.83 0 0 1-3.834 3.83H4.729a3.835 3.835 0 0 1-3.839-3.83V4.725A3.84 3.84 0 0 1 4.729.89h125.468a3.834 3.834 0 0 1 3.834 3.835l.001 30.543z"></path><path fill="#FFF" d="M30.128 19.784c-.029-3.223 2.639-4.791 2.761-4.864-1.511-2.203-3.853-2.504-4.676-2.528-1.967-.207-3.875 1.177-4.877 1.177-1.022 0-2.565-1.157-4.228-1.123-2.14.033-4.142 1.272-5.24 3.196-2.266 3.923-.576 9.688 1.595 12.859 1.086 1.553 2.355 3.287 4.016 3.226 1.625-.067 2.232-1.036 4.193-1.036 1.943 0 2.513 1.036 4.207.997 1.744-.028 2.842-1.56 3.89-3.127 1.255-1.78 1.759-3.533 1.779-3.623-.041-.014-3.387-1.291-3.42-5.154zm-3.2-9.478c.874-1.093 1.472-2.58 1.306-4.089-1.265.056-2.847.875-3.758 1.944-.806.942-1.526 2.486-1.34 3.938 1.421.106 2.88-.717 3.792-1.793zM53.645 31.504h-2.271l-1.244-3.909h-4.324l-1.185 3.909H42.41l4.284-13.308h2.646l4.305 13.308zm-3.89-5.549L48.63 22.48c-.119-.355-.342-1.191-.671-2.507h-.04a96.75 96.75 0 0 1-.632 2.507l-1.105 3.475h3.573zm14.907.633c0 1.632-.441 2.922-1.323 3.869-.79.843-1.771 1.264-2.942 1.264-1.264 0-2.172-.454-2.725-1.362h-.04v5.055H55.5V25.067c0-1.026-.027-2.079-.079-3.159h1.875l.119 1.521h.04c.711-1.146 1.79-1.718 3.238-1.718 1.132 0 2.077.447 2.833 1.342.758.896 1.136 2.074 1.136 3.535zm-2.172.078c0-.934-.21-1.704-.632-2.31-.461-.632-1.08-.948-1.856-.948-.526 0-1.004.176-1.431.523-.428.35-.708.807-.839 1.373-.066.264-.099.48-.099.65v1.6c0 .698.214 1.287.642 1.768s.984.721 1.668.721c.803 0 1.428-.31 1.875-.928.448-.619.672-1.435.672-2.449zm13.209-.078c0 1.632-.441 2.922-1.324 3.869-.789.843-1.77 1.264-2.941 1.264-1.264 0-2.172-.454-2.724-1.362h-.04v5.055h-2.132V25.067c0-1.026-.027-2.079-.079-3.159h1.875l.119 1.521h.04c.71-1.146 1.789-1.718 3.238-1.718 1.131 0 2.076.447 2.834 1.342.755.896 1.134 2.074 1.134 3.535zm-2.172.078c0-.934-.211-1.704-.633-2.31-.461-.632-1.078-.948-1.855-.948a2.22 2.22 0 0 0-1.432.523c-.428.35-.707.807-.838 1.373-.065.264-.099.48-.099.65v1.6c0 .698.214 1.287.64 1.768.428.48.984.721 1.67.721.803 0 1.428-.31 1.875-.928.448-.619.672-1.435.672-2.449zm14.512 1.106c0 1.132-.393 2.053-1.182 2.764-.867.777-2.074 1.165-3.625 1.165-1.432 0-2.58-.276-3.449-.829l.494-1.777c.936.566 1.963.85 3.082.85.803 0 1.428-.182 1.877-.544.447-.362.67-.848.67-1.454 0-.54-.184-.995-.553-1.364-.367-.369-.98-.712-1.836-1.029-2.33-.869-3.494-2.142-3.494-3.816 0-1.094.408-1.991 1.225-2.689.814-.699 1.9-1.048 3.258-1.048 1.211 0 2.217.211 3.02.632l-.533 1.738c-.75-.408-1.598-.612-2.547-.612-.75 0-1.336.185-1.756.553a1.58 1.58 0 0 0-.533 1.205c0 .526.203.961.611 1.303.355.316 1 .658 1.936 1.027 1.145.461 1.986 1 2.527 1.618.539.616.808 1.387.808 2.307zm7.049-4.264h-2.35v4.659c0 1.185.414 1.777 1.244 1.777.381 0 .697-.033.947-.099l.059 1.619c-.42.157-.973.236-1.658.236-.842 0-1.5-.257-1.975-.77-.473-.514-.711-1.376-.711-2.587v-4.837h-1.4v-1.6h1.4v-1.757l2.094-.632v2.389h2.35v1.602zm10.603 3.119c0 1.475-.422 2.686-1.264 3.633-.883.975-2.055 1.461-3.516 1.461-1.408 0-2.529-.467-3.365-1.401s-1.254-2.113-1.254-3.534c0-1.487.43-2.705 1.293-3.652.861-.948 2.023-1.422 3.484-1.422 1.408 0 2.541.467 3.396 1.402.818.907 1.226 2.078 1.226 3.513zm-2.212.069c0-.885-.189-1.644-.572-2.277-.447-.766-1.086-1.148-1.914-1.148-.857 0-1.508.383-1.955 1.148-.383.634-.572 1.405-.572 2.317 0 .885.189 1.644.572 2.276.461.766 1.105 1.148 1.936 1.148.814 0 1.453-.39 1.914-1.168.393-.645.591-1.412.591-2.296zm9.142-2.913a3.702 3.702 0 0 0-.672-.059c-.75 0-1.33.283-1.738.85-.355.5-.533 1.132-.533 1.895v5.035h-2.131l.02-6.574c0-1.106-.027-2.113-.08-3.021h1.857l.078 1.836h.059c.225-.631.58-1.139 1.066-1.52a2.578 2.578 0 0 1 1.541-.514c.197 0 .375.014.533.039v2.033zm9.535 2.469a5 5 0 0 1-.078.967h-6.396c.025.948.334 1.673.928 2.173.539.447 1.236.671 2.092.671.947 0 1.811-.151 2.588-.454l.334 1.48c-.908.396-1.98.593-3.217.593-1.488 0-2.656-.438-3.506-1.313-.848-.875-1.273-2.05-1.273-3.524 0-1.447.395-2.652 1.186-3.613.828-1.026 1.947-1.539 3.355-1.539 1.383 0 2.43.513 3.141 1.539.563.815.846 1.823.846 3.02zm-2.033-.553c.014-.632-.125-1.178-.414-1.639-.369-.593-.936-.889-1.699-.889-.697 0-1.264.289-1.697.869-.355.461-.566 1.014-.631 1.658h4.441zM49.05 10.009c0 1.177-.353 2.063-1.058 2.658-.653.549-1.581.824-2.783.824-.596 0-1.106-.026-1.533-.078V6.982c.557-.09 1.157-.136 1.805-.136 1.145 0 2.008.249 2.59.747.652.563.979 1.368.979 2.416zm-1.105.029c0-.763-.202-1.348-.606-1.756-.404-.407-.994-.611-1.771-.611-.33 0-.611.022-.844.068v4.889c.129.02.365.029.708.029.802 0 1.421-.223 1.857-.669s.656-1.096.656-1.95zm6.964.999c0 .725-.207 1.319-.621 1.785-.434.479-1.009.718-1.727.718-.692 0-1.243-.229-1.654-.689-.41-.459-.615-1.038-.615-1.736 0-.73.211-1.329.635-1.794s.994-.698 1.712-.698c.692 0 1.248.229 1.669.688.4.446.601 1.022.601 1.726zm-1.087.034c0-.435-.094-.808-.281-1.119-.22-.376-.533-.564-.94-.564-.421 0-.741.188-.961.564-.188.311-.281.69-.281 1.138 0 .435.094.808.281 1.119.227.376.543.564.951.564.4 0 .714-.191.94-.574.194-.317.291-.693.291-1.128zm8.943-2.352l-1.475 4.714h-.96l-.611-2.047a15.32 15.32 0 0 1-.379-1.523h-.019a11.15 11.15 0 0 1-.379 1.523l-.649 2.047h-.971l-1.387-4.714h1.077l.533 2.241c.129.53.235 1.035.32 1.513h.019c.078-.394.207-.896.389-1.503l.669-2.25h.854l.641 2.202c.155.537.281 1.054.378 1.552h.029c.071-.485.178-1.002.32-1.552l.572-2.202h1.029zm5.433 4.714H67.15v-2.7c0-.832-.316-1.248-.95-1.248a.946.946 0 0 0-.757.343 1.217 1.217 0 0 0-.291.808v2.796h-1.048v-3.366c0-.414-.013-.863-.038-1.349h.921l.049.737h.029c.122-.229.304-.418.543-.569.284-.176.602-.265.95-.265.44 0 .806.142 1.097.427.362.349.543.87.543 1.562v2.824zm2.89 0h-1.047V6.556h1.047v6.877zm6.17-2.396c0 .725-.207 1.319-.621 1.785-.434.479-1.01.718-1.727.718-.693 0-1.244-.229-1.654-.689-.41-.459-.615-1.038-.615-1.736 0-.73.211-1.329.635-1.794s.994-.698 1.711-.698c.693 0 1.248.229 1.67.688.4.446.601 1.022.601 1.726zm-1.088.034c0-.435-.094-.808-.281-1.119-.219-.376-.533-.564-.939-.564-.422 0-.742.188-.961.564-.188.311-.281.69-.281 1.138 0 .435.094.808.281 1.119.227.376.543.564.951.564.4 0 .713-.191.939-.574.195-.317.291-.693.291-1.128zm6.16 2.362h-.941l-.078-.543h-.029c-.322.433-.781.65-1.377.65-.445 0-.805-.143-1.076-.427a1.339 1.339 0 0 1-.369-.96c0-.576.24-1.015.723-1.319.482-.304 1.16-.453 2.033-.446V10.3c0-.621-.326-.931-.979-.931-.465 0-.875.117-1.229.349l-.213-.688c.438-.271.979-.407 1.617-.407 1.232 0 1.85.65 1.85 1.95v1.736c0 .471.023.846.068 1.124zm-1.088-1.62v-.727c-1.156-.02-1.734.297-1.734.95 0 .246.066.43.201.553a.733.733 0 0 0 .512.184c.23 0 .445-.073.641-.218a.893.893 0 0 0 .38-.742zm7.043 1.62h-.93l-.049-.757h-.029c-.297.576-.803.864-1.514.864-.568 0-1.041-.223-1.416-.669s-.562-1.025-.562-1.736c0-.763.203-1.381.611-1.853.395-.44.879-.66 1.455-.66.633 0 1.076.213 1.328.64h.02V6.556h1.049v5.607c0 .459.012.882.037 1.27zm-1.086-1.988v-.786a1.194 1.194 0 0 0-.408-.965 1.03 1.03 0 0 0-.701-.257c-.391 0-.697.155-.922.466-.223.311-.336.708-.336 1.193 0 .466.107.844.322 1.135.227.31.533.465.916.465.344 0 .619-.129.828-.388.202-.239.301-.527.301-.863zm10.049-.408c0 .725-.207 1.319-.621 1.785-.434.479-1.008.718-1.727.718-.691 0-1.242-.229-1.654-.689-.41-.459-.615-1.038-.615-1.736 0-.73.211-1.329.635-1.794s.994-.698 1.713-.698c.691 0 1.248.229 1.668.688.4.446.601 1.022.601 1.726zm-1.086.034c0-.435-.094-.808-.281-1.119-.221-.376-.533-.564-.941-.564-.42 0-.74.188-.961.564-.188.311-.281.69-.281 1.138 0 .435.094.808.281 1.119.227.376.543.564.951.564.4 0 .715-.191.941-.574.193-.317.291-.693.291-1.128zm6.721 2.362h-1.047v-2.7c0-.832-.316-1.248-.951-1.248-.311 0-.562.114-.756.343s-.291.499-.291.808v2.796h-1.049v-3.366c0-.414-.012-.863-.037-1.349h.92l.049.737h.029a1.53 1.53 0 0 1 .543-.569c.285-.176.602-.265.951-.265.439 0 .805.142 1.096.427.363.349.543.87.543 1.562v2.824zm7.053-3.929h-1.154v2.29c0 .582.205.873.611.873.188 0 .344-.016.467-.049l.027.795c-.207.078-.479.117-.814.117-.414 0-.736-.126-.969-.378-.234-.252-.35-.676-.35-1.271V9.504h-.689v-.785h.689v-.864l1.027-.31v1.173h1.154v.786zm5.548 3.929h-1.049v-2.68c0-.845-.316-1.268-.949-1.268-.486 0-.818.245-1 .735a1.317 1.317 0 0 0-.049.377v2.835h-1.047V6.556h1.047v2.841h.02c.33-.517.803-.775 1.416-.775.434 0 .793.142 1.078.427.355.355.533.883.533 1.581v2.803zm5.723-2.58c0 .188-.014.346-.039.475h-3.143c.014.466.164.821.455 1.067.266.22.609.33 1.029.33.465 0 .889-.074 1.271-.223l.164.728c-.447.194-.973.291-1.582.291-.73 0-1.305-.215-1.721-.645-.418-.43-.625-1.007-.625-1.731 0-.711.193-1.303.582-1.775.406-.504.955-.756 1.648-.756.678 0 1.193.252 1.541.756.281.4.42.895.42 1.483zm-1-.271a1.411 1.411 0 0 0-.203-.805c-.182-.291-.459-.437-.834-.437a.995.995 0 0 0-.834.427 1.586 1.586 0 0 0-.311.815h2.182z"></path></symbol><symbol viewBox="0 0 600 898.6" id="kijiji-logo-mobile"><path fill="#FFF" d="M595.9 877.7l-28.3.9c-27.3 1.5-55.5 4-79.7 7-28.1 3-54.5 6.9-74.5 11.3l-2.6.6-1.4-2.3C367.6 825.5 253 655.4 229.9 623.7c-10.7-14.5-25.8-18.6-48.2-13.6v57.2c0 54.4.3 105.4 2.6 148.8 1.3 19 3.7 23.1 67.3 26l3.9.2-2.9 36-.3 3.6-59.4-1.8c-22.2-1-45.2-2-73.3-2-36 0-60.7 1.4-80.4 2.4L0 881.9l1.1-39.7 3.5-.1c64.4-2.1 67.9-10.3 68.9-25.8 1.6-18.9 5.7-87.7 5.7-177.6V334c.3-83-.3-137.6-1.8-172-.4-6.2-2.2-11-22.4-11.1L9.9 150l-.1-38.1 3.7-.1c67.1-1.1 133.2-7.6 168.9-13.6l4.7-.8-.5 12.8c-1.8 56-4.6 140.6-4.6 227.4v238.1C243.2 562 334 430.2 358.4 399c3.7-5.2 4-7.6 3.9-8.5 0-.3-.1-.5-.1-.5-.1-.5-1.8-1.4-5.9-1.4l-53.9.5-2.1-37.5 3.6-.3c33.4-3 72.4-7.4 116.2-12.9l71.3-10.3 38.2-5.6 3.7 38.2-3.4.7c-57.7 11.1-75.1 22.2-101.1 45.1-26.3 22-85.9 111.7-128.4 148.8 55.1 82.9 165.5 230.4 197.4 266 12.7 13.6 25.4 18.2 50.6 18l8.4-.1 43.1-4.8-4 43.3z"></path><path fill="#F90" d="M325.6 289.6c48.9 0 88.5-39.6 88.5-88.6 0-48.9-39.6-88.5-88.5-88.5s-88.5 39.6-88.5 88.5c0 49 39.6 88.6 88.5 88.6m-44.7-88.8c0-23.9 19.3-43.2 43.2-43.2 23.9 0 43.2 19.4 43.2 43.2 0 23.8-19.3 43.2-43.2 43.2-23.9 0-43.2-19.3-43.2-43.2"></path><path fill="#F30" d="M445 137.1c37.8 0 68.5-30.7 68.5-68.5S482.9 0 445 0c-37.8 0-68.5 30.7-68.5 68.5s30.7 68.6 68.5 68.6m-33-68.4c0-18.4 15-33.4 33.5-33.4s33.4 15 33.4 33.4c0 18.5-15 33.5-33.4 33.5-18.6-.1-33.5-15-33.5-33.5"></path><path fill="#66C" d="M509.4 302.2c39.9 0 72.2-32.3 72.2-72.1 0-39.9-32.3-72.2-72.2-72.2-39.8 0-72.1 32.3-72.1 72.2 0 39.8 32.3 72.1 72.1 72.1m-34.5-70.7c0-19.5 15.7-35.2 35.1-35.2 19.5 0 35.2 15.8 35.2 35.2 0 19.5-15.8 35.2-35.2 35.2-19.4 0-35.1-15.8-35.1-35.2"></path></symbol><symbol viewBox="0 0 612 301.7" id="kijiji-logo"><path fill="#F90" d="M192.8 88.3c14.9 0 26.9-12.1 26.9-27s-12-26.9-26.9-26.9c-14.9 0-26.9 12.1-26.9 26.9-.1 14.9 12 27 26.9 27m-13.6-27c0-7.3 5.9-13.2 13.2-13.2 7.3 0 13.2 5.9 13.2 13.2 0 7.3-5.9 13.2-13.2 13.2-7.4-.1-13.2-6-13.2-13.2"></path><path fill="#F30" d="M281.7 53.9c14.9 0 26.9-12.1 26.9-27S296.6 0 281.7 0c-14.9 0-27 12.1-27 27s12.1 26.9 27 26.9m-13-26.9c0-7.3 5.9-13.1 13.2-13.1 7.3 0 13.1 5.9 13.1 13.1 0 7.3-5.9 13.2-13.1 13.2-7.3 0-13.2-5.9-13.2-13.2"></path><path fill="#66C" d="M370.7 98.7c14.9 0 27-12.1 27-26.9 0-14.9-12.1-27-27-27s-26.9 12.1-26.9 27c-.1 14.9 12 26.9 26.9 26.9m-12.9-26.4c0-7.3 5.8-13.2 13.1-13.2s13.2 5.9 13.2 13.2c0 7.3-5.9 13.2-13.2 13.2-7.3 0-13.1-5.9-13.1-13.2"></path><path fill="#9C3" d="M459.6 68c14.9 0 27-12 27-27 0-14.9-12.1-26.9-27-26.9S432.7 26.2 432.7 41c0 15 12.1 27 26.9 27m-12.9-27.5c0-7.3 5.9-13.2 13.2-13.2 7.3 0 13.1 5.9 13.1 13.2 0 7.3-5.9 13.1-13.1 13.1-7.3 0-13.2-5.9-13.2-13.1"></path><path fill="#909" d="M548.6 81.8c14.9 0 26.9-12.1 26.9-27s-12.1-26.9-26.9-26.9c-14.9 0-26.9 12.1-26.9 26.9 0 14.9 12 27 26.9 27m-12.9-27c0-7.3 5.9-13.2 13.1-13.2 7.3 0 13.2 5.9 13.2 13.2 0 7.3-5.9 13.2-13.2 13.2-7.2 0-13.1-5.9-13.1-13.2"></path><path fill="#FFF" d="M583.1 223.5c-16.9-.9-18.3-2-18.6-7.8-.3-7.2-.8-16.8-.8-36.9v-40.1c0-13.8.2-23.2.5-31.9.2-3.1 1.5-4.4 18.4-8.5l1.2-.3-.9-11-3.6.9c-2.8.6-12.7 2.7-25 4.7-4.8.9-14.7 2.2-15 2.2-12.3 1.4-22.5 2-25.3 2.1l-1 .1-.7 11h1.2c17.5-.6 19.8.1 20 3.2.6 5.1.8 14.2.8 31.5v31.2c0 20.3-.8 35-1.2 42-.2 4.8-1.1 6.9-20.8 7.7h-1l-.4 11.3 14.4-.4c5.9-.3 12.6-.6 21.4-.6 8.3 0 15.5.3 21.8.6l15.1.4v-1l.5-10.3-1-.1zm-177.5 18.7c-16.9-.9-18.3-2-18.6-7.8-.4-7.2-.8-16.9-.8-36.9v-40.1c0-13.8.2-23.8.5-32.5l.1-1.5c.2-3.1 1.5-4.4 18.4-8.5l1.2-.3-.9-11.1-3.6.9c-2.8.6-12.7 2.8-25 4.7-4.8.8-14.8 2.2-15 2.2-12.3 1.4-22.5 2-25.3 2.1l-12 .5-.8 11 12.2-.5c17.5-.6 19.8.1 20 3.3.5 5.1.9 16.4.9 33.7v31.2c0 20.3-.8 35-1.3 42-.2 4.8-1.1 7-20.8 7.7l-1 .1-.4 11.3 14.4-.5c5.9-.3 12.7-.6 21.4-.6 8.3 0 15.5.3 21.9.6l15.1.4v-1l.5-10.2-1.1-.2zm-196-26.6c-.4-7.2-.8-16.8-.8-36.9V145c0-13.8.2-22 .5-30.7l.1-1.2c.2-3.1 1.5-4.4 18.4-8.5l8.4-2-1-11-10.9 2.6c-2.7.6-12.7 2.8-25 4.7-4.8.8-14.7 2.2-15 2.2-12.3 1.4-22.5 2-25.3 2.1l-4 .2-.7 11 4.3-.2c17.5-.6 19.8.1 20 3.2.5 5.1.8 14.2.8 31.5v24.7c0 20.3-.8 35-1.3 42-.2 4.6-1.1 6.8-19 7.6h-2.4c-7.2.1-10.8-1.2-14.4-5.1-9.1-10.2-40.7-52.3-56.4-76 12.1-10.6 29.2-36.2 36.7-42.5 7.4-6.5 12.4-9.7 28.9-12.9l1-.2-1.1-10.9-10.9 1.6-20.4 2.9c-12.5 1.6-23.7 2.8-33.2 3.7l-1 .1.6 10.7 15.4-.1c1.2 0 1.6.3 1.7.4v.1c0 .3-.1.9-1.1 2.4-7 8.9-32.9 46.6-50.4 50.5v-68c0-24.8.8-49 1.3-65l.1-3.7-1.3.2c-10.3 1.8-29.2 3.7-48.3 4H2.8v10.9l12.9.3c5.8 0 6.3 1.4 6.4 3.2.4 9.8.6 25.4.5 49.2v87.1c0 25.7-1.2 45.3-1.6 50.7-.3 4.4-1.3 6.8-19.7 7.4h-1L0 235.6l11.2-.4c5.6-.3 12.7-.7 23-.7 8 0 14.6.3 21 .6l17 .5.1-1 .8-10.3H72c-18.2-.8-18.9-2-19.2-7.4-.6-12.4-.7-27-.7-42.5V158c6.4-1.4 10.7-.3 13.8 3.9 6.6 9 39.4 57.7 51.3 77.6l.4.7.8-.2c5.7-1.2 13.3-2.4 21.3-3.2 6.9-.9 15-1.6 22.8-2l8.1-.3c5.9-.3 12.7-.6 21.4-.6 8.3 0 15.5.3 21.9.6l15.1.5v-1l.5-10.2-1.1-.1c-17.1-1.2-18.5-2.3-18.8-8.1"></path><path fill="#FFF" d="M496.7 82.2c-6.3 0-22.6-1-22.6-1l-6.7-.4-17.8-1.2c-10.6-.9-20-1.8-26.6-2.6l-11-1.4-.7 11.1 26.3 3.9c5.2.8 5.2 2 5.5 4.7.8 10 1.1 30.3 1.1 61.9 0 40.7-.8 69.7-2.6 91.2-1.5 19.8-7.4 32-17.8 36.2-1.9-3.9-5.9-6.7-10.6-6.7-6.5 0-11.8 5.3-11.8 11.8 0 4 2 7.6 5 9.7l1.2.8c.5.3 1.1.5 1.7.7.2.1 1.2.4 1.4.4.8.2 1.6.2 2.4.2.5 0 .9 0 1.4-.1 9.2-.7 26.6-7.8 39.8-22.8 9.6-10.9 15.4-25.9 17.3-44.4 1.5-13.2 1.8-28.8 1.8-54.7l.3-78.7s0-1.3.1-3.5c.2-2.2.8-3.8 6.1-3.9h16.8l1.2-11.2h-1.2zM320.1 61.5c-6.2 1-22.5 2.7-22.5 2.7l-6.6.8-17.8 1.8c-10.5.9-20 1.6-26.6 1.8l-11 .5 1.2 11 26.5-.6c5.3 0 5.9 1.4 6.2 3.7 0 0 0 .5.1 2.7.5 11.2.8 29.7.8 56 0 40.7-.8 62.5-2.6 83.9-1.5 19.9-7.5 32-17.9 36.3-1.9-4-6-6.8-10.7-6.8-6.5 0-11.8 5.3-11.8 11.8 0 4.6 2.7 8.7 6.6 10.6.4.2 1.9.7 2.1.8.3.1.7.2 1.1.3.6.1 2.1.2 2.2.2 8.7 0 27.3-7.1 41.2-22.9 9.6-10.9 15.4-25.9 17.3-44.4 1.5-13.2 1.8-21.6 1.8-47.5l.3-78.7s.1-3.1.1-5.3c0-2.3.3-4.1 5.5-5.1l23.5-3.7-.7-11.3-8.3 1.4zm273.2 23.8h7.4v1.5H598v7.7h-2v-7.7h-2.7m14.3 7.7h-1.7l-2.4-7.9v7.9h-1.9v-9.2h3.3l1.9 6.7 2.1-6.7h3.1v9.2h-1.8v-7.8l-.1-.1"></path></symbol><symbol viewBox="0 0 20 19.1" id="mobials-star-empty"><path fill="#D0D0D0" d="M19.5 6.8L13.6 6c-.2 0-.4-.1-.4-.3L10.6.4c-.2-.4-.8-.4-1 0L6.8 5.7c0 .1-.2.3-.4.3l-5.9.8c-.5.1-.7.7-.3 1L4.4 12c.1.1.2.3.2.5l-1 5.9c-.1.5.4.8.9.6l5.3-2.8c.2-.1.4-.1.5 0l5.3 2.8c.4.2.9-.1.8-.6l-1-5.9c0-.2 0-.4.2-.5l4.3-4.2c.3-.3.1-.9-.4-1z"></path></symbol><symbol viewBox="0 0 20 19.1" id="mobials-star-full"><path d="M19.5 6.8L13.6 6c-.2 0-.4-.1-.4-.3L10.6.4c-.2-.4-.8-.4-1 0L6.8 5.7c0 .1-.2.3-.4.3l-5.9.8c-.5.1-.7.7-.3 1L4.4 12c.1.1.2.3.2.5l-1 5.9c-.1.5.4.8.9.6l5.3-2.8c.2-.1.4-.1.5 0l5.3 2.8c.4.2.9-.1.8-.6l-1-5.9c0-.2 0-.4.2-.5l4.3-4.2c.3-.3.1-.9-.4-1z"></path></symbol><symbol viewBox="0 0 20 19.1" id="mobials-star-half"><path fill="#D0D0D0" d="M19.8 7.8c.3-.3.2-.9-.3-1L13.6 6c-.2 0-.4-.1-.4-.3L10.6.4c-.2-.3-.4-.4-.6-.4v16.2c.1 0 .2 0 .3.1l5.3 2.8c.4.2.9-.1.8-.6l-1-5.9c0-.2 0-.4.2-.5l4.2-4.3z"></path><path d="M9.5.3L6.8 5.7c0 .1-.2.3-.4.3l-5.9.8c-.5.1-.7.7-.3 1L4.4 12c.1.1.2.3.2.5l-1 5.9c-.1.5.4.8.9.6l5.3-2.8c.1 0 .2-.1.3-.1V0c-.3 0-.5.1-.6.3z"></path></symbol><symbol viewBox="0 0 256 256" id="rss-feed"><rect width="256" height="256" fill="#CC5D15" rx="55" ry="55"></rect><rect width="246" height="246" x="5" y="5" fill="#F49C52" rx="50" ry="50"></rect><rect width="236" height="236" x="10" y="10" fill="#ff9000" rx="47" ry="47"></rect><circle cx="68" cy="189" r="24" fill="#FFF"></circle><path fill="#FFF" d="M160 213h-34a82 82 0 0 0-82-82V97a116 116 0 0 1 116 116z"></path><path fill="#FFF" d="M184 213A140 140 0 0 0 44 73V38a175 175 0 0 1 175 175z"></path></symbol><symbol viewBox="0 0 100 100" id="spinner"><g fill-rule="evenodd" clip-rule="evenodd"><circle cx="82.362" cy="33.243" r="11.197"></circle><circle cx="59.801" cy="15.032" r="10.09"></circle><circle cx="28.596" cy="17.302" r="8.093"></circle><circle cx="12.647" cy="42.896" r="6.208"></circle><circle cx="15.708" cy="72.366" r="5.098"></circle><circle cx="40.269" cy="90.959" r="4.099"></circle><circle cx="70.818" cy="90.091" r="3.271"></circle><circle cx="86.47" cy="64.241" r="2.367"></circle></g></symbol><symbol viewBox="0 0 1024 721" id="youtube"><path fill="#FFF" d="M407 493l276-143-276-144v287z"></path><path fill="#420000" fill-rule="evenodd" d="M407 206l242.042 161.625L683 350 407 206z" opacity=".12" clip-rule="evenodd"></path><path fill="url(#youtube-a)" d="M1013.023 156.281s-9.981-70.389-40.606-101.386c-38.842-40.684-82.38-40.885-102.346-43.267C727.134 1.296 512.721 1.296 512.721 1.296h-.444s-214.408 0-357.35 10.333c-19.967 2.381-63.49 2.583-102.346 43.267C21.956 85.892 11.99 156.281 11.99 156.281S1.775 238.94 1.775 321.6v77.493c0 82.658 10.215 165.317 10.215 165.317s9.966 70.39 40.591 101.387c38.856 40.684 89.896 39.397 112.629 43.661 81.718 7.836 347.29 10.261 347.29 10.261s214.634-.323 357.571-10.655c19.966-2.382 63.504-2.583 102.346-43.267 30.625-30.997 40.606-101.387 40.606-101.387s10.2-82.659 10.2-165.317V321.6c.001-82.66-10.2-165.319-10.2-165.319zM407.047 493L407 206l276 144-275.953 143z"></path></symbol></svg>